<?xml version="1.0" standalone="no"?>
<!DOCTYPE svg PUBLIC "-//W3C//DTD SVG 1.1//EN" "http://www.w3.org/Graphics/SVG/1.1/DTD/svg11.dtd" >
<svg xmlns="http://www.w3.org/2000/svg" xmlns:xlink="http://www.w3.org/1999/xlink" version="1.1">
<metadata>
Created by FontForge 20161116 at Thu Nov 12 21:25:50 2015
 By Jimmy Wärting
Copyright (c) 2012 by Andres Moreno Walter. All rights reserved.
</metadata>
<defs>
<font id="TimeBurner" horiz-adv-x="612" >
  <font-face 
    font-family="TimeBurner"
    font-weight="400"
    font-stretch="normal"
    units-per-em="1000"
    panose-1="2 0 0 0 0 0 0 0 0 0"
    ascent="800"
    descent="-200"
    x-height="500"
    cap-height="732"
    bbox="-120 -353 993 1146"
    underline-thickness="50"
    underline-position="-100"
    unicode-range="U+0020-2212"
  />
<missing-glyph horiz-adv-x="423" 
 />
    <glyph glyph-name=".notdef" horiz-adv-x="423" 
 />
    <glyph glyph-name=".null" horiz-adv-x="0" 
 />
    <glyph glyph-name="nonmarkingreturn" horiz-adv-x="289" 
 />
    <glyph glyph-name="space" unicode=" " horiz-adv-x="214" 
 />
    <glyph glyph-name="space" unicode="&#xa0;" horiz-adv-x="214" 
 />
    <glyph glyph-name="e" unicode="e" 
d="M473 274q-5 39 -23 72t-45.5 58t-63 39t-75.5 14t-76 -14t-63.5 -39t-45.5 -58t-23 -72h415zM266 -13q-54 0 -102 20.5t-83.5 56t-56 83t-20.5 101.5t20.5 102t56 83.5t83.5 56t102 20.5t101.5 -20.5t83 -56t56 -83.5t20.5 -102v-13t-1 -13h-12h-456q5 -39 23 -72
t45.5 -58t63.5 -39t76 -14q29 0 55 11t46 31l37 -37q-26 -26 -61.5 -41.5t-76.5 -15.5z" />
    <glyph glyph-name="f" unicode="f" horiz-adv-x="350" 
d="M1 640q0 27 10.5 50.5t28 41.5t41.5 28t51 10t51 -10t41.5 -28t28 -41.5t10.5 -50.5h-53q0 32 -23 55t-55 23t-55 -23t-23 -55v-311h188v-53h-188v-276h-53v276v53v311z" />
    <glyph glyph-name="g" unicode="g" horiz-adv-x="608" 
d="M261 510q54 0 101.5 -20.5t83 -56t56 -83.5t20.5 -102q0 -40 -11.5 -77t-32 -68t-49.5 -55t-63 -39q42 -26 66.5 -69.5t24.5 -96.5q0 -41 -15.5 -76.5t-42 -62t-62.5 -42t-76 -15.5v52q30 0 56 11.5t45.5 31t31 45.5t11.5 56t-11.5 56t-31 45.5t-45.5 31t-56 11.5
q-54 0 -101.5 20.5t-83 56t-56 83t-20.5 101.5t20.5 102t56 83.5t83 56t101.5 20.5zM261 457q-43 0 -81 -16.5t-66.5 -44.5t-45 -66.5t-16.5 -81.5t16.5 -81t45 -66.5t66.5 -45t81 -16.5t81.5 16.5t66.5 45t44.5 66.5t16.5 81t-16.5 81.5t-44.5 66.5t-66.5 44.5t-81.5 16.5z
" />
    <glyph glyph-name="h" unicode="h" horiz-adv-x="483" 
d="M198 512q40 0 76 -15.5t62.5 -42t42 -62.5t15.5 -76v-316h-53v316q0 30 -11 56t-30.5 45.5t-45.5 30.5t-56 11t-56.5 -11t-46 -30.5t-30.5 -45.5t-11 -56v-316h-53v316v434h53v-301q27 29 64 46t80 17z" />
    <glyph glyph-name="i" unicode="i" horiz-adv-x="151" 
d="M1 500h52v-500h-52v500zM1 750h52v-85h-52v85z" />
    <glyph glyph-name="j" unicode="j" horiz-adv-x="192" 
d="M99 -220q0 -27 -10.5 -51t-28 -41.5t-41.5 -28t-51 -10.5v52q32 0 55 23t23 56v720h53v-720zM99 665h-53v85h53v-85z" />
    <glyph glyph-name="k" unicode="k" horiz-adv-x="464" 
d="M0 750h52v-500l250 250h74l-250 -250l250 -250h-74l-250 250v-250h-52v750z" />
    <glyph glyph-name="l" unicode="l" horiz-adv-x="203" 
d="M-1 750h52v-630q0 -33 23 -56t56 -23v-52q-27 0 -51 10t-41.5 28t-28 42t-10.5 51v630z" />
    <glyph glyph-name="m" unicode="m" horiz-adv-x="833" 
d="M196 512q54 0 99 -27t71 -72q26 45 70.5 72t99.5 27q40 0 76 -15.5t62.5 -42t42 -62.5t15.5 -76v-316h-53v316q0 30 -11 56t-30.5 45.5t-45.5 30.5t-56 11t-56.5 -11t-46 -30.5t-30.5 -45.5t-11 -56v-316h-52v316q0 30 -11.5 56t-31 45.5t-45.5 30.5t-56 11t-56.5 -11
t-46 -30.5t-30.5 -45.5t-11 -56v-316h-52v316q0 40 15.5 76t42 62.5t62 42t76.5 15.5z" />
    <glyph glyph-name="n" unicode="n" horiz-adv-x="601" 
d="M260 512q54 0 101.5 -20.5t83 -56t56 -83.5t20.5 -102v-250h-52v250q0 43 -16.5 81.5t-44.5 66.5t-66.5 44.5t-81.5 16.5t-81 -16.5t-66.5 -44.5t-45 -66.5t-16.5 -81.5v-250h-52v250q0 54 20.5 102t56 83.5t83 56t101.5 20.5z" />
    <glyph glyph-name="o" unicode="o" horiz-adv-x="601" 
d="M260 512q54 0 101.5 -20.5t83 -56t56 -83.5t20.5 -102t-20.5 -101.5t-56 -83t-83 -56t-101.5 -20.5t-101.5 20.5t-83 56t-56 83t-20.5 101.5t20.5 102t56 83.5t83 56t101.5 20.5zM260 459q-44 0 -82 -16.5t-66 -44.5t-44.5 -66.5t-16.5 -81.5t16.5 -81t44.5 -66.5t66 -45
t82 -16.5q43 0 81 16.5t66.5 45t45 66.5t16.5 81t-16.5 81.5t-45 66.5t-66.5 44.5t-81 16.5z" />
    <glyph glyph-name="p" unicode="p" horiz-adv-x="615" 
d="M262 510q54 0 101.5 -20.5t83 -56t56 -83.5t20.5 -102t-20.5 -101.5t-56 -83t-83 -56t-101.5 -20.5q-65 0 -119.5 28t-89.5 76v-343h-53v500q0 54 20.5 102t56 83.5t83.5 56t102 20.5zM262 457q-44 0 -82 -16.5t-66 -44.5t-44.5 -66.5t-16.5 -81.5t16.5 -81t44.5 -66.5
t66 -45t82 -16.5q43 0 81 16.5t66.5 45t45 66.5t16.5 81t-16.5 81.5t-45 66.5t-66.5 44.5t-81 16.5z" />
    <glyph glyph-name="q" unicode="q" horiz-adv-x="625" 
d="M260 508q54 0 102 -20.5t83.5 -56t56 -83.5t20.5 -102v-500h-52v343q-36 -48 -90.5 -76t-119.5 -28q-54 0 -101.5 20.5t-83 56t-56 83t-20.5 101.5t20.5 102t56 83.5t83 56t101.5 20.5zM260 455q-43 0 -81 -16.5t-66.5 -44.5t-45 -66.5t-16.5 -81.5t16.5 -81t45 -66.5
t66.5 -45t81 -16.5t81.5 16.5t67 45t45 66.5t16.5 81t-16.5 81.5t-45 66.5t-67 44.5t-81.5 16.5z" />
    <glyph glyph-name="r" unicode="r" horiz-adv-x="346" 
d="M51 0h-52v250q0 54 20.5 102t56 83.5t83 56t101.5 20.5v-53q-43 0 -81 -16.5t-66.5 -44.5t-45 -66.5t-16.5 -81.5v-250z" />
    <glyph glyph-name="s" unicode="s" horiz-adv-x="427" 
d="M128 230q-26 0 -49.5 9.5t-41 26t-28 39t-11.5 48.5q-2 14 0 30q1 26 11.5 48.5t28 39t41 26t49.5 9.5h188v-52h-188q-31 0 -53.5 -21t-24.5 -52q-2 -13 0 -26q2 -31 24.5 -52t53.5 -21h74h1q26 0 49.5 -9.5t41 -26.5t28 -39.5t11.5 -48.5v-27v-1v-2q0 -27 -10.5 -50
t-28.5 -40.5t-41.5 -27.5t-50.5 -10h-193v52h193q29 0 51 18.5t27 47.5q0 3 0.5 6.5t0.5 6.5v21q-1 32 -24 55t-55 23h-74z" />
    <glyph glyph-name="t" unicode="t" horiz-adv-x="335" 
d="M-1 629h52v-131h189v-52h-189v-323q0 -32 23 -55t56 -23q32 0 55 23t23 55h52q0 -27 -10 -51t-28 -41.5t-41.5 -28t-50.5 -10.5t-51 10.5t-41.5 28t-28 41.5t-10.5 51v506z" />
    <glyph glyph-name="u" unicode="u" horiz-adv-x="479" 
d="M196 -10q-41 0 -76.5 15.5t-62 42t-42 62t-15.5 76.5v315h52v-315q0 -30 11 -56.5t30.5 -46t46 -30.5t56.5 -11t56 11t45.5 30.5t30.5 46t11 56.5v315h53v-315q0 -41 -15.5 -76.5t-42 -62t-62.5 -42t-76 -15.5z" />
    <glyph glyph-name="v" unicode="v" horiz-adv-x="549" 
d="M484 500l-215 -500h-56l-215 500h57l186 -434l186 434h57z" />
    <glyph glyph-name="w" unicode="w" horiz-adv-x="814" 
d="M196 -11q-41 0 -76.5 15.5t-62 42t-42 62t-15.5 76.5v315h53v-315q0 -30 11 -56.5t30.5 -46t45.5 -30.5t56 -11t56 11t45.5 30.5t31 46t11.5 56.5v315h52v-315q0 -30 11.5 -56.5t31 -46t45.5 -30.5t56 -11t56 11t45.5 30.5t31 46t11.5 56.5v315h52v-315
q0 -41 -15.5 -76.5t-42 -62t-62.5 -42t-76 -15.5q-54 0 -99 26.5t-71 71.5q-26 -45 -70.5 -71.5t-99.5 -26.5z" />
    <glyph glyph-name="x" unicode="x" horiz-adv-x="420" 
d="M-8 0l145 250l-145 250h61l114 -198l114 198h60l-144 -250l144 -250h-60l-114 198l-114 -198h-61z" />
    <glyph glyph-name="y" unicode="y" horiz-adv-x="494" 
d="M195 -10q-41 0 -76.5 15.5t-62 42t-42 62t-15.5 76.5v315h53v-315q0 -30 11 -56.5t30.5 -46t45.5 -30.5t56 -11t56 11t45.5 30.5t31 46t11.5 56.5v315h52v-315v-242q0 -41 -15.5 -76.5t-42 -62t-62 -42t-76.5 -15.5v52q30 0 56 11.5t45.5 31t31 45.5t11.5 56v109
q-27 -29 -64 -46t-80 -17z" />
    <glyph glyph-name="z" unicode="z" horiz-adv-x="431" 
d="M0 0l258 448h-234v52h264h61l-259 -448h238v-52h-268h-60z" />
    <glyph glyph-name="d" unicode="d" horiz-adv-x="608" 
d="M264 513q65 0 119 -28.5t90 -76.5v343h52v-500q0 -54 -20.5 -101.5t-56 -83t-83 -56t-101.5 -20.5t-101.5 20.5t-83 56t-56 83t-20.5 101.5t20.5 102t56 83.5t83 56t101.5 20.5zM264 460q-43 0 -81 -16.5t-66.5 -44.5t-45 -66.5t-16.5 -81.5t16.5 -81t45 -66.5t66.5 -45
t81 -16.5t81 16.5t66.5 45t45 66.5t16.5 81t-16.5 81.5t-45 66.5t-66.5 44.5t-81 16.5z" />
    <glyph glyph-name="A" unicode="A" horiz-adv-x="625" 
d="M471 479q0 43 -16.5 81t-45 66.5t-66.5 45t-81 16.5q-44 0 -82 -16.5t-66 -45t-44.5 -66.5t-16.5 -81v-148h418v148zM53 279v-279h-53v479q0 54 20.5 101.5t56 83t83.5 56t102 20.5t101.5 -20.5t83 -56t56 -83t20.5 -101.5v-148v-52v-279h-52v279h-418z" />
    <glyph glyph-name="B" unicode="B" horiz-adv-x="562" 
d="M243 732q40 0 76 -15.5t62.5 -42t42 -62.5t15.5 -77q0 -52 -24.5 -95.5t-66.5 -69.5q48 -24 77.5 -70.5t29.5 -103.5q0 -41 -15.5 -76.5t-42 -62t-62.5 -42t-76 -15.5h-259v339v53v340h243zM259 340q-4 0 -8 -0.5t-8 -0.5h-191v-287h207q30 0 56 11t45.5 30.5t31 46
t11.5 56.5t-11.5 56t-31 45.5t-45.5 31t-56 11.5zM243 392q30 0 56 11t45.5 30.5t30.5 45.5t11 56t-11 56t-30.5 45.5t-45.5 31t-56 11.5h-191v-287h191z" />
    <glyph glyph-name="C" unicode="C" horiz-adv-x="583" 
d="M260 741q73 0 132.5 -35.5t94.5 -95.5l-46 -26q-27 48 -74.5 76.5t-106.5 28.5q-43 0 -81 -16.5t-66.5 -45t-45 -66.5t-16.5 -81v-230q0 -44 16.5 -82t45 -66t66.5 -44.5t81 -16.5q59 0 106.5 28.5t74.5 75.5l46 -26q-35 -59 -94.5 -94.5t-132.5 -35.5q-54 0 -101.5 20.5
t-83 56t-56 83t-20.5 101.5v230q0 54 20.5 101.5t56 83t83 56t101.5 20.5z" />
    <glyph glyph-name="D" unicode="D" horiz-adv-x="593" 
d="M52 51h190q43 0 81.5 16.5t66.5 45t44.5 66.5t16.5 81v209q0 43 -16.5 81.5t-44.5 66.5t-66.5 44.5t-81.5 16.5h-190v-627zM0 -1v3v729h242q54 0 102 -20.5t83.5 -56.5t56 -83.5t20.5 -101.5v-209q0 -54 -20.5 -101.5t-56 -83t-83.5 -56t-102 -20.5h-242z" />
    <glyph glyph-name="E" unicode="E" horiz-adv-x="531" 
d="M1 705v0v27h439v-53h-387v-287h338v-53h-338v-287h387v-52h-439v0v0v705z" />
    <glyph glyph-name="F" unicode="F" horiz-adv-x="520" 
d="M-1 732v0v0h438v-53h-386v-287h337v-53h-337v-339h-52v732z" />
    <glyph glyph-name="G" unicode="G" horiz-adv-x="608" 
d="M524 250q0 -54 -20.5 -101.5t-56 -83t-83 -56t-101.5 -20.5t-102 20.5t-83.5 56t-56 83t-20.5 101.5v230q0 54 20.5 101.5t56 83t83.5 56t102 20.5q72 0 132 -35.5t94 -95.5l-45 -26q-27 48 -75 76.5t-106 28.5q-44 0 -82 -16.5t-66 -45t-44.5 -66.5t-16.5 -81v-230
q0 -43 16.5 -81t44.5 -66.5t66 -45t82 -16.5q43 0 81 16.5t66.5 45t45 66.5t16.5 81v30h-168v52h168h52v-52v-30v0z" />
    <glyph glyph-name="H" unicode="H" horiz-adv-x="531" 
d="M-1 732h52v-340h335v340h52v-732h-52v339h-335v-339h-52v732z" />
    <glyph glyph-name="I" unicode="I" horiz-adv-x="147" 
d="M-1 732h52v-732h-52v732z" />
    <glyph glyph-name="J" unicode="J" horiz-adv-x="236" 
d="M142 56q0 -54 -20.5 -101.5t-56 -83t-83.5 -56t-102 -20.5v52q43 0 81.5 16.5t66.5 45t44.5 66.5t16.5 81v676h53v-676z" />
    <glyph glyph-name="K" unicode="K" horiz-adv-x="593" 
d="M0 731h52v-731h-52v731zM89 362l-37 37l37 37v0l296 295h74l-37 -36l-296 -296l296 -296l103 -103h-74z" />
    <glyph glyph-name="L" unicode="L" horiz-adv-x="549" 
d="M-1 731h52v-679h413v-52h-439v0h-26v731z" />
    <glyph glyph-name="M" unicode="M" horiz-adv-x="833" 
d="M0 544q0 40 15.5 76t42 62.5t62 42t76.5 15.5q54 0 99 -26.5t71 -71.5q25 45 70 71.5t100 26.5q40 0 76 -15.5t62.5 -42t42 -62.5t15.5 -76v-544h-53v544q0 30 -11 56t-30.5 45.5t-45.5 31t-56 11.5t-56.5 -11.5t-46 -31t-30.5 -45.5t-11 -56v-544h-53v544q0 30 -11 56
t-30.5 45.5t-45.5 31t-56 11.5t-56.5 -11.5t-46 -31t-30.5 -45.5t-11 -56v-544h-52v544z" />
    <glyph glyph-name="N" unicode="N" horiz-adv-x="619" 
d="M471 479q0 43 -16.5 81t-45 66.5t-66.5 45t-81 16.5q-44 0 -82 -16.5t-66 -45t-44.5 -66.5t-16.5 -81v-479h-52v479q0 54 20.5 101.5t56 83t83 56t101.5 20.5t101.5 -20.5t83 -56t56 -83t20.5 -101.5v-479h-52v479v0z" />
    <glyph glyph-name="O" unicode="O" 
d="M523 250q0 -54 -20.5 -101.5t-56 -83t-83 -56t-101.5 -20.5t-102 20.5t-83.5 56t-56 83t-20.5 101.5v230q0 54 20.5 101.5t56 83t83.5 56t102 20.5t101.5 -20.5t83 -56t56 -83t20.5 -101.5v-230zM471 480q0 43 -16.5 81t-45 66.5t-66.5 45t-81 16.5q-44 0 -82 -16.5
t-66 -45t-44.5 -66.5t-16.5 -81v-230q0 -43 16.5 -81t44.5 -66.5t66 -45t82 -16.5q43 0 81 16.5t66.5 45t45 66.5t16.5 81v230z" />
    <glyph glyph-name="P" unicode="P" horiz-adv-x="512" 
d="M243 732q40 0 76 -15.5t62.5 -42t42 -62.5t15.5 -77t-15.5 -76.5t-42 -62t-62.5 -42t-76 -15.5h-191v-339h-52v732h243zM243 392q30 0 56 11t45.5 30.5t31 45.5t11.5 56t-11.5 56t-31 45.5t-45.5 31t-56 11.5h-191v-287h191z" />
    <glyph glyph-name="Q" unicode="Q" horiz-adv-x="615" 
d="M524 252q0 -50 -17.5 -94t-48 -78.5t-72 -57.5t-89.5 -29q16 -42 52 -68t83 -26v-52q-34 0 -64.5 11t-55 30t-42.5 45.5t-27 57.5q-51 4 -95 25.5t-76.5 57t-51.5 81t-19 97.5v230q0 54 20.5 101.5t56 83t83 56t101.5 20.5t102 -20.5t83.5 -56t56 -83t20.5 -101.5v-230z
M471 482q0 43 -16.5 81t-44.5 66.5t-66.5 45t-81.5 16.5t-81 -16.5t-66.5 -45t-45 -66.5t-16.5 -81v-230q0 -43 16.5 -81t45 -66.5t66.5 -45t81 -16.5t81.5 16.5t66.5 45t44.5 66.5t16.5 81v230z" />
    <glyph glyph-name="R" unicode="R" horiz-adv-x="534" 
d="M-1 732h242q41 0 76.5 -15.5t62 -42t42 -62.5t15.5 -77q0 -36 -12 -68.5t-34 -58t-51.5 -42.5t-63.5 -23h3l147 -343h-57l-146 339h-172v-339h-52v732zM51 392h190q30 0 56 11t45.5 30.5t31 45.5t11.5 56t-11.5 56t-31 45.5t-45.5 31t-56 11.5h-190v-287z" />
    <glyph glyph-name="S" unicode="S" horiz-adv-x="545" 
d="M421 732v-53h-227q-30 0 -56 -11.5t-45.5 -31t-30.5 -45.5t-11 -56t11 -56t30.5 -45.5t45.5 -30.5t56 -11h66q40 0 76 -15.5t62.5 -42t42 -62.5t15.5 -76q0 -41 -15.5 -76.5t-42 -62t-62.5 -42t-76 -15.5h-227v52h227q30 0 56 11t45.5 30.5t31 46t11.5 56.5t-11.5 56
t-31 45.5t-45.5 30.5t-56 11h-66q-41 0 -76.5 15.5t-62 42t-42 62t-15.5 76.5t15.5 77t42 62.5t62 42t76.5 15.5h227z" />
    <glyph glyph-name="T" unicode="T" horiz-adv-x="556" 
d="M268 676v-676h-53v676h-216v52h485v-52h-216z" />
    <glyph glyph-name="U" unicode="U" horiz-adv-x="615" 
d="M522 253q0 -54 -20.5 -101.5t-56 -83t-83 -56t-101.5 -20.5t-102 20.5t-83.5 56t-56 83t-20.5 101.5v479h53v-479q0 -43 16.5 -81t44.5 -66.5t66 -45t82 -16.5q43 0 81 16.5t66.5 45t45 66.5t16.5 81v479h52v-479z" />
    <glyph glyph-name="V" unicode="V" horiz-adv-x="748" 
d="M621 728h57l-98 -228l-215 -500h-57l-215 500l-98 228h57l98 -228l187 -434l186 434z" />
    <glyph glyph-name="W" unicode="W" horiz-adv-x="833" 
d="M0 730h52v-544q0 -30 11.5 -56.5t31 -46t45.5 -30.5t56 -11t56 11t45.5 30.5t31 46t11.5 56.5v544h52v-544q0 -30 11 -56.5t30.5 -46t46 -30.5t56.5 -11t56 11t45.5 30.5t31 46t11.5 56.5v544h52v-544q0 -41 -15.5 -76.5t-42 -62t-62.5 -42t-76 -15.5q-55 0 -99.5 26.5
t-70.5 71.5q-26 -45 -70.5 -71.5t-99.5 -26.5q-41 0 -76.5 15.5t-62 42t-42 62t-15.5 76.5v544z" />
    <glyph glyph-name="X" unicode="X" horiz-adv-x="553" 
d="M420 0l-180 312l-180 -312h-60l210 364l-40 69v0l-140 243l-32 56h60l173 -299l9 -16l9 15l138 239l35 61h61l-173 -299v0l-39 -69l210 -364h-61z" />
    <glyph glyph-name="Y" unicode="Y" horiz-adv-x="630" 
d="M278 349l10 17l179 311l32 55h60l-217 -377v0l-38 -65v-290h-52v290l-36 62v0l-219 380h60l44 -77l168 -289z" />
    <glyph glyph-name="Z" unicode="Z" horiz-adv-x="565" 
d="M414 732h60l-121 -211v0l-271 -469h407v-52h-437v0v0h-61l301 521l92 158h-341v53h371v0z" />
    <glyph glyph-name="a" unicode="a" horiz-adv-x="608" 
d="M260 513q54 0 102 -20.5t83.5 -56t56 -83.5t20.5 -102v-250h-53v93q-35 -48 -89.5 -76t-119.5 -28q-54 0 -101.5 20.5t-83 56t-56 83t-20.5 101.5t20.5 102t56 83.5t83 56t101.5 20.5zM260 460q-43 0 -81 -16.5t-66.5 -44.5t-45 -66.5t-16.5 -81.5t16.5 -81t45 -66.5
t66.5 -45t81 -16.5t81.5 16.5t66.5 45t44.5 66.5t16.5 81t-16.5 81.5t-44.5 66.5t-66.5 44.5t-81.5 16.5z" />
    <glyph glyph-name="zero" unicode="0" horiz-adv-x="604" 
d="M260 861q54 0 101.5 -20.5t83 -56t56 -83.5t20.5 -102v-339q0 -54 -20.5 -102t-56 -83.5t-83 -56t-101.5 -20.5t-101.5 20.5t-83 56t-56 83.5t-20.5 102v339q0 54 20.5 102t56 83.5t83 56t101.5 20.5zM469 599q0 43 -16.5 81.5t-45 66.5t-66.5 44.5t-81 16.5
q-44 0 -82 -16.5t-66 -44.5t-44.5 -66.5t-16.5 -81.5v-339q0 -44 16.5 -82t44.5 -66.5t66 -45t82 -16.5q43 0 81 16.5t66.5 45t45 66.5t16.5 82v339z" />
    <glyph glyph-name="one" unicode="1" horiz-adv-x="236" 
d="M139 863h10v-863h-53v810h-95v53h138v0z" />
    <glyph glyph-name="two" unicode="2" horiz-adv-x="508" 
d="M1 807q33 27 75 42.5t88 15.5q55 0 103.5 -21t83.5 -56.5t55.5 -83t20.5 -100.5q0 -35 -8.5 -64t-23 -56t-33 -53t-38.5 -55l-224 -324h309v-52h-409l246 355l90 127q18 26 28.5 57t10.5 65q0 43 -16 81t-44.5 66.5t-67 45t-82.5 16.5q-37 0 -70 -12.5t-59 -32.5z" />
    <glyph glyph-name="three" unicode="3" 
d="M315 518q45 -9 83 -32.5t65.5 -57.5t43.5 -76t16 -89q0 -54 -20.5 -102t-56 -83.5t-83.5 -56t-102 -20.5t-101.5 20.5t-83 56t-56 83.5t-20.5 102h52q0 -44 16.5 -82t45 -66.5t66.5 -45t81 -16.5t81.5 16.5t67 45t45 66.5t16.5 82q0 43 -16.5 81t-45 66.5t-67 45
t-81.5 16.5h-33l196 339h-372v53h402h61l-196 -340z" />
    <glyph glyph-name="four" unicode="4" horiz-adv-x="631" 
d="M-2 363l288 500h61l-259 -448h323v448h53v-448h85v-52h-85v-363h-53v363h-353v0v0h-60z" />
    <glyph glyph-name="five" unicode="5" horiz-adv-x="531" 
d="M53 812v-291h126q51 0 99 -19.5t86 -57.5t57 -86t19 -98.5t-19 -98.5t-57 -86t-86 -57.5t-98.5 -19.5t-98.5 19.5t-86 57.5l37 37q30 -31 68.5 -46.5t79 -15.5t79 15.5t68.5 46.5q31 30 46 68.5t15 79t-15 79t-46 68.5q-31 31 -69 46.5t-79 15.5h-152h-26v395h26h385v-52
h-359z" />
    <glyph glyph-name="six" unicode="6" 
d="M262 524q54 0 101.5 -20.5t83 -56t56 -83t20.5 -101.5t-20.5 -102t-56 -83.5t-83 -56t-101.5 -20.5t-101.5 20.5t-83 56t-56 83.5t-20.5 102q0 53 20 101h-1l3 5q11 24 27 46l259 449h60l-208 -360q48 20 101 20zM81 364h-2q-26 -46 -26 -101q0 -44 16.5 -82t45 -66.5
t66.5 -45t81 -16.5t81.5 16.5t66.5 45t44.5 66.5t16.5 82q0 43 -16.5 81t-44.5 66.5t-66.5 45t-81.5 16.5q-52 0 -95.5 -23.5t-72.5 -61.5z" />
    <glyph glyph-name="seven" unicode="7" horiz-adv-x="538" 
d="M-1 863h457q-93 -217 -184.5 -431.5t-185.5 -431.5h-57l348 810h-378v53z" />
    <glyph glyph-name="eight" unicode="8" horiz-adv-x="608" 
d="M261 863q40 0 76 -15.5t62.5 -42t42 -62.5t15.5 -76q0 -53 -25 -96.5t-67 -69.5q35 -15 64 -39t49.5 -55t32 -68t11.5 -77q0 -54 -20.5 -102t-56 -83.5t-83 -56t-101.5 -20.5t-102 20.5t-83.5 56t-56 83.5t-20.5 102q0 40 11.5 77t32.5 68t49.5 55t63.5 39
q-42 26 -66.5 69.5t-24.5 96.5q0 40 15.5 76t42 62.5t62 42t76.5 15.5zM261 471q-44 0 -82 -16.5t-66 -45t-44.5 -66.5t-16.5 -81q0 -44 16.5 -82t44.5 -66.5t66 -45t82 -16.5q43 0 81 16.5t66.5 45t45 66.5t16.5 82q0 43 -16.5 81t-45 66.5t-66.5 45t-81 16.5zM261 523
q30 0 56 11t45.5 30.5t30.5 46t11 56.5t-11 56t-30.5 45.5t-45.5 30.5t-56 11t-56.5 -11t-46 -30.5t-30.5 -45.5t-11 -56t11 -56.5t30.5 -46t46 -30.5t56.5 -11z" />
    <glyph glyph-name="nine" unicode="9" horiz-adv-x="589" 
d="M261 340q-54 0 -101.5 20.5t-83 56t-56 83t-20.5 101.5t20.5 102t56 83.5t83 56t101.5 20.5t102 -20.5t83.5 -56t56 -83.5t20.5 -102q0 -47 -17 -92q-5 -12 -13.5 -28t-18.5 -33t-19.5 -33t-16.5 -28l-224 -387h-60l208 360q-48 -20 -101 -20zM261 392q43 0 81.5 16.5
t66.5 45t44.5 66.5t16.5 81t-16.5 81.5t-44.5 66.5t-66.5 44.5t-81.5 16.5t-81 -16.5t-66.5 -44.5t-45 -66.5t-16.5 -81.5t16.5 -81t45 -66.5t66.5 -45t81 -16.5z" />
    <glyph glyph-name="ampersand" unicode="&#x26;" horiz-adv-x="630" 
d="M-1 193q0 57 28.5 102.5t74.5 70.5q-40 25 -65 66t-27 91v3v1v5v5v1v3q2 39 18 73t42.5 59.5t61.5 40t74 14.5q41 0 76.5 -15.5t62.5 -41.5l-37 -37q-20 20 -46 31t-56 11t-56 -11.5t-45.5 -31t-31 -45.5t-11.5 -56q0 -29 10.5 -54t28.5 -44t42.5 -31t52.5 -14
q3 0 5.5 -0.5t4.5 -0.5v-52h-11q-30 0 -56.5 -11t-46 -30.5t-30.5 -45.5t-11 -56t11 -56.5t30.5 -46t46 -30.5t56.5 -11q43 0 81 16.5t66.5 44.5t45 66t16.5 82v78h-61v52h173v-52h-60v-78q0 -54 -20 -101t-55 -82.5t-82 -56t-100 -21.5h-4q-41 0 -76.5 15.5t-62 42t-42 62
t-15.5 76.5z" />
    <glyph glyph-name="dollar" unicode="$" horiz-adv-x="515" 
d="M171 762h52v-34q36 -5 67 -21.5t54 -42.5t36 -59.5t13 -70.5v-11v11h-52q0 54 -33.5 93t-84.5 49v-287q36 -5 67 -22t54 -43t36 -59.5t13 -70.5v-11v11q0 -37 -13 -70t-36 -59t-54 -43t-67 -22v-34h-52v34q-36 5 -67 22t-54 43t-36 59t-13 70h52q0 -26 9 -50t25 -42.5
t37.5 -31.5t46.5 -17v287q-35 4 -65.5 20.5t-53 41t-36.5 56.5t-15 68v3v1v4v5v1v3q1 36 15 67.5t36.5 56t53 40.5t65.5 21v34zM53 534q0 -26 9 -50t25 -42.5t37.5 -31.5t46.5 -17v283q-51 -10 -84.5 -49t-33.5 -93zM341 194q0 54 -33.5 93.5t-84.5 48.5v-283q51 10 84 49
t34 92z" />
    <glyph glyph-name="percent" unicode="%" horiz-adv-x="683" 
d="M23 0l419 731h60l-419 -731h-60zM131 720q27 0 51 -10.5t41.5 -28t28 -41.5t10.5 -51t-10.5 -50.5t-28 -41.5t-41.5 -28t-51 -10t-51 10t-41.5 28t-28 41.5t-10.5 50.5t10.5 51t28 41.5t41.5 28t51 10.5zM131 668q-32 0 -55 -23t-23 -56q0 -32 23 -55t55 -23t55 23t23 55
q0 33 -23 56t-55 23zM394 266q27 0 50.5 -10t41.5 -28t28 -41.5t10 -50.5t-10 -51t-28 -41.5t-41.5 -28t-50.5 -10.5t-51 10.5t-41.5 28t-28 41.5t-10.5 51t10.5 50.5t28 41.5t41.5 28t51 10zM394 214q-33 0 -56 -23t-23 -55q0 -33 23 -56t56 -23q32 0 55 23t23 56
q0 32 -23 55t-55 23z" />
    <glyph glyph-name="period" unicode="." horiz-adv-x="140" 
d="M-1 88h53v-85h-53v85z" />
    <glyph glyph-name="at" unicode="@" horiz-adv-x="615" 
d="M265 384q27 0 51 -10t41.5 -28t28 -42t10.5 -51v-78h63q15 36 15 78q0 43 -16.5 81.5t-44.5 67t-66.5 45t-81.5 16.5t-81 -16.5t-66.5 -45t-45 -67t-16.5 -81.5t16.5 -81t45 -66.5t66.5 -45t81 -16.5q41 0 81 16l20 -48q-48 -20 -101 -20q-54 0 -101.5 20.5t-83 56
t-56 83t-20.5 101.5t20.5 102t56 83.5t83 56t101.5 20.5t101.5 -20.5t83 -56t56 -83.5t20.5 -102q0 -72 -35 -130h-17h-46h-32h-53v26q-32 -26 -78 -26q-27 0 -51 10t-41.5 28t-28 41.5t-10.5 50.5t10.5 51t28 42t41.5 28t51 10zM343 253q0 33 -23 56t-55 23t-55 -23
t-23 -56q0 -32 23 -55t55 -23t55 23t23 55z" />
    <glyph glyph-name="numbersign" unicode="#" horiz-adv-x="913" 
d="M364 503l98 228h57l-98 -228l-5 -11h126l5 11l98 228h57l-98 -228l-5 -11h256l-18 -42l-5 -10h-255l-62 -145h255l-23 -53h-255l-103 -239h-57l103 239h-126l-103 -239h-57l103 239h-255l22 53h256l62 145h-255l8 19l14 33h255zM458 295l62 145h-126l-62 -145h126z" />
    <glyph glyph-name="exclam" unicode="!" horiz-adv-x="140" 
d="M1 888h52v-732h-52v732zM0 86h53v-86h-53v86z" />
    <glyph glyph-name="quotedbl" unicode="&#x22;" horiz-adv-x="243" 
d="M0 747h53v-234h-53v234zM100 747h53v-234h-53v234z" />
    <glyph glyph-name="quotesingle" unicode="'" horiz-adv-x="143" 
d="M0 747h53v-234h-53v234z" />
    <glyph glyph-name="parenleft" unicode="(" horiz-adv-x="206" 
d="M53 0q0 -43 15.5 -80.5t43.5 -65.5l2 -2l-37 -37l-1 1q-35 36 -55.5 83t-20.5 101v728q0 54 20.5 101.5t55.5 82.5l1 1l37 -37l-2 -1q-28 -29 -43.5 -66.5t-15.5 -80.5v-728z" />
    <glyph glyph-name="parenright" unicode=")" horiz-adv-x="203" 
d="M56 727q0 43 -16 80.5t-43 66.5l-2 1l37 37l1 -1q35 -35 55.5 -82.5t20.5 -101.5v-728q0 -54 -20.5 -101t-55.5 -83l-1 -1l-37 37l2 2q27 28 43 65.5t16 80.5v728z" />
    <glyph glyph-name="asterisk" unicode="*" horiz-adv-x="475" 
d="M166 747h52v-159l150 49l16 -50l-151 -49l93 -127l-42 -31l-94 129l-92 -128l-43 31l94 128l-150 49l16 50l151 -49v157z" />
    <glyph glyph-name="plus" unicode="+" horiz-adv-x="582" 
d="M218 547h52v-219h220v-53h-220v-219h-52v219h-219v53h219v219z" />
    <glyph glyph-name="comma" unicode="," horiz-adv-x="192" 
d="M-13 -145l2 2q28 28 44 65.5t16 80.5v85h52v-85q0 -54 -20 -101t-55 -83l-2 -1z" />
    <glyph glyph-name="hyphen" unicode="-" horiz-adv-x="486" 
d="M389 273h-390v53h390v-53z" />
    <glyph glyph-name="question" unicode="?" horiz-adv-x="601" 
d="M468 627q0 43 -16.5 81t-45 66.5t-66.5 45t-81 16.5q-44 0 -82 -16.5t-66 -45t-44.5 -66.5t-16.5 -81h-52q0 54 20.5 101.5t56 83t83 56t101.5 20.5t101.5 -20.5t83 -56t56 -83t20.5 -101.5q0 -51 -18 -96t-50 -80t-75 -57t-92 -27v-211h-52v262h26q43 0 81 16.5
t66.5 44.5t45 66t16.5 82zM233 86h52v-86h-52v86z" />
    <glyph glyph-name="colon" unicode=":" horiz-adv-x="169" 
d="M1 355v85h53v-85h-53zM1 0v85h53v-85h-53z" />
    <glyph glyph-name="semicolon" unicode=";" horiz-adv-x="199" 
d="M-16 -148l2 2q28 28 44 65.5t16 80.5h52q0 -54 -20.5 -101t-55.5 -83l-1 -1zM46 85h52v-85h-52v85zM46 440h52v-85h-52v85z" />
    <glyph glyph-name="equal" unicode="=" horiz-adv-x="597" 
d="M495 424v-52h-491v52h491zM495 233v-52h-491v52h491z" />
    <glyph glyph-name="bracketleft" unicode="[" horiz-adv-x="265" 
d="M-1 883h52v0h124v-52h-124v-884h124v-52h-176v0v0v988z" />
    <glyph glyph-name="bracketright" unicode="]" horiz-adv-x="276" 
d="M178 883v-988v0v0h-177v52h125v884h-125v52h125v0h52v0z" />
    <glyph glyph-name="braceleft" unicode="{" horiz-adv-x="350" 
d="M195 537v-20h-1q-5 -48 -31 -87.5t-66 -62.5q44 -26 71 -70.5t27 -99.5v-194q0 -43 16 -80.5t44 -65.5l1 -2l-37 -37l-1 1q-32 32 -51.5 74t-23.5 90v20v194q0 30 -11.5 56t-31 45.5t-45.5 31t-56 11.5v52q30 0 56 11.5t45.5 31t31 45.5t11.5 56v194q0 54 20 101.5
t55 82.5l1 1l37 -37l-1 -1q-28 -29 -44 -66.5t-16 -80.5v-194z" />
    <glyph glyph-name="bar" unicode="|" horiz-adv-x="158" 
d="M51 755v-939h-52v939h52z" />
    <glyph glyph-name="backslash" unicode="\" horiz-adv-x="545" 
d="M416 0l-419 731h60l419 -731h-60z" />
    <glyph glyph-name="slash" unicode="/" horiz-adv-x="545" 
d="M-5 3l419 731h61l-420 -731h-60z" />
    <glyph glyph-name="braceright" unicode="}" horiz-adv-x="346" 
d="M54 731q0 43 -16 80.5t-44 66.5l-1 1l37 37l1 -1q35 -35 55 -82.5t20 -101.5v-194q0 -30 11.5 -56t31 -45.5t45.5 -31t56 -11.5v-52q-30 0 -56 -11.5t-45.5 -31t-31 -45.5t-11.5 -56v-194v-20q-4 -48 -23.5 -90t-51.5 -74l-1 -1l-37 37l1 2q28 28 44 65.5t16 80.5v194
q0 55 26.5 99.5t71.5 70.5q-40 23 -66 62.5t-31 87.5h-1v20v194z" />
    <glyph glyph-name="less" unicode="&#x3c;" horiz-adv-x="486" 
d="M364 37l37 -37h-74l-296 296v0l-37 37l37 37v0l296 296h74l-37 -37l-296 -296z" />
    <glyph glyph-name="greater" unicode="&#x3e;" horiz-adv-x="486" 
d="M337 333l-296 296l-37 37h74l296 -296v0l37 -37l-37 -37v0l-296 -296h-74l37 37z" />
    <glyph glyph-name="Euro" unicode="&#x20ac;" horiz-adv-x="625" 
d="M317 740q73 0 132.5 -36t93.5 -95l-45 -26q-27 47 -75 75.5t-106 28.5q-44 0 -82 -16.5t-66 -44.5t-44.5 -66.5t-16.5 -81.5v-23h342v-52h-342v-79h342v-53h-342v-23q0 -43 16.5 -81t44.5 -66.5t66 -45t82 -16.5q58 0 106 28.5t75 76.5l45 -26q-34 -59 -93.5 -95
t-132.5 -36q-54 0 -101.5 20.5t-83 56t-56 83t-20.5 101.5v23h-54v53h54v79h-54v52h54v23q0 54 20.5 102t56 83.5t83 56t101.5 20.5z" />
    <glyph glyph-name="degree" unicode="&#xb0;" horiz-adv-x="335" 
d="M126 754q27 0 50.5 -10t41.5 -28t28 -42t10 -51t-10 -50.5t-28 -41.5t-41.5 -28t-50.5 -10t-51 10t-41.5 28t-28 41.5t-10.5 50.5t10.5 51t28 42t41.5 28t51 10zM126 702q-33 0 -56 -23t-23 -56q0 -32 23 -55t56 -23q32 0 55 23t23 55q0 33 -23 56t-55 23z" />
    <glyph glyph-name="underscore" unicode="_" horiz-adv-x="671" 
d="M583 -3v-52h-584v52h584z" />
    <glyph glyph-name="asciicircum" unicode="^" horiz-adv-x="560" 
d="M231 622l-166 -167h-74l203 204v0l37 37l37 -37v0l204 -204h-74z" />
    <glyph glyph-name="b" unicode="b" horiz-adv-x="604" 
d="M261 511q54 0 102 -20.5t83.5 -56t56 -83.5t20.5 -102t-20.5 -101.5t-56 -83t-83.5 -56t-102 -20.5t-101.5 20.5t-83 56t-56 83t-20.5 101.5v500h52v-343q36 48 90.5 76.5t118.5 28.5zM261 458q-43 0 -81 -16.5t-66.5 -44.5t-45 -66.5t-16.5 -81.5t16.5 -81t45 -66.5
t66.5 -45t81 -16.5t81.5 16.5t66.5 45t44.5 66.5t16.5 81t-16.5 81.5t-44.5 66.5t-66.5 44.5t-81.5 16.5z" />
    <glyph glyph-name="c" unicode="c" horiz-adv-x="472" 
d="M258 -8q-54 0 -101.5 20.5t-83 56t-56 83t-20.5 101.5t20.5 102t56 83.5t83 56t101.5 20.5q41 0 76.5 -15.5t62.5 -42.5l-37 -37q-20 20 -46 31t-56 11q-43 0 -81 -16.5t-66.5 -44.5t-45 -66.5t-16.5 -81.5t16.5 -81t45 -66.5t66.5 -45t81 -16.5q30 0 56 11t46 31l37 -37
q-27 -26 -62.5 -41.5t-76.5 -15.5z" />
    <glyph glyph-name="exclamdown" unicode="&#xa1;" horiz-adv-x="155" 
d="M1 0h52v731.955h-52v-731.955zM0 801.951h53v85.9941h-53v-85.9941z" />
    <glyph glyph-name="sterling" unicode="&#xa3;" horiz-adv-x="462" 
d="M87 609q0 27 10.5 51t28 42t41.5 28t51 10v-52q-33 0 -56 -23t-23 -56v-281h86v-52h-86v-224h228v-52h-280v276h-87v52h87v281v0z" />
    <glyph glyph-name="yen" unicode="&#xa5;" horiz-adv-x="628" 
d="M281 349l189 328l32 55h60l-255 -442v-66h86v-52h-86v-57h86v-53h-86v-62h-52v62h-86v53h86v57h-86v52h86v66l-255 442h60l212 -366z" />
    <glyph glyph-name="AE" unicode="&#xc6;" horiz-adv-x="1013" 
d="M470 636v96h439v-53h-386v-287h337v-52h-337v-288h386v-52h-439v337h-418v-337h-52v479q0 54 20.5 101.5t56 83t83 56t101.5 20.5q65 0 119.5 -28t89.5 -76zM470 479q0 43 -16.5 81.5t-44.5 66.5t-66.5 44.5t-81.5 16.5t-81 -16.5t-66.5 -45t-45 -66.5t-16.5 -81v-90h418
v90z" />
    <glyph glyph-name="ae" unicode="&#xe6;" horiz-adv-x="1077" 
d="M261 511q39 0 74.5 -10.5t66 -30t55 -46.5t40.5 -60q16 33 40 60t54.5 46.5t66 30t74.5 10.5q54 0 101.5 -20.5t83 -56t56 -83t20.5 -101.5v-13.5t-1 -12.5h-468q5 -39 23 -72t45.5 -58t63.5 -39t76 -14q29 0 55 11t46 31l37 -37q-26 -26 -61.5 -41.5t-76.5 -15.5
q-65 0 -119.5 28t-89.5 76v-93h-53v93q-35 -48 -89.5 -76t-119.5 -28q-54 0 -101.5 20.5t-83 56t-56 83t-20.5 101.5t20.5 101.5t56 83t83 56t101.5 20.5zM524 276h415q-5 39 -23 72t-45.5 58t-63 39t-75.5 14t-76 -14t-63.5 -39t-45.5 -58t-23 -72zM261 459
q-43 0 -81 -16.5t-66.5 -45t-45 -66.5t-16.5 -81q0 -44 16.5 -82t45 -66t66.5 -44.5t81 -16.5t81.5 16.5t66.5 44.5t44.5 66t16.5 82q0 43 -16.5 81t-44.5 66.5t-66.5 45t-81.5 16.5z" />
    <glyph glyph-name="oe" unicode="&#x153;" horiz-adv-x="1076" 
d="M261 511q39 0 74.5 -10.5t66 -30t55 -46.5t40.5 -60q16 33 40 60t54.5 46.5t66 30t74.5 10.5q54 0 101.5 -20.5t83 -56t56 -83t20.5 -101.5v-13.5t-1 -12.5h-468q5 -39 23 -72t45.5 -58t63.5 -39t76 -14q29 0 55 11t46 31l37 -37q-26 -26 -61.5 -41.5t-76.5 -15.5
q-39 0 -74.5 10.5t-66 30t-54.5 46.5t-40 60q-16 -33 -40.5 -60t-55 -46.5t-66 -30t-74.5 -10.5q-54 0 -101.5 20.5t-83 56t-56 83t-20.5 101.5t20.5 101.5t56 83t83 56t101.5 20.5zM524 276h415q-5 39 -23 72t-45.5 58t-63 39t-75.5 14t-76 -14t-63.5 -39t-45.5 -58
t-23 -72zM261 459q-43 0 -81 -16.5t-66.5 -45t-45 -66.5t-16.5 -81q0 -44 16.5 -82t45 -66t66.5 -44.5t81 -16.5t81.5 16.5t66.5 44.5t44.5 66t16.5 82q0 43 -16.5 81t-44.5 66.5t-66.5 45t-81.5 16.5z" />
    <glyph glyph-name="OE" unicode="&#x152;" horiz-adv-x="1009" 
d="M470 706v26h439v-53h-386v-287h337v-52h-337v-288h386v-52h-439v92q-35 -48 -89.5 -76t-119.5 -28q-54 0 -101.5 20.5t-83 56t-56 83t-20.5 101.5v230q0 54 20.5 101.5t56 83t83 56t101.5 20.5q65 0 119.5 -28t89.5 -76v70zM470 479q0 43 -16.5 81t-44.5 66.5t-66.5 45
t-81.5 16.5t-81 -16.5t-66.5 -45t-45 -66.5t-16.5 -81v-230q0 -43 16.5 -81t45 -66.5t66.5 -45t81 -16.5t81.5 16.5t66.5 45t44.5 66.5t16.5 81v230z" />
    <glyph glyph-name="questiondown" unicode="&#xbf;" horiz-adv-x="593" 
d="M108.993 260.984q0 -42.998 16.499 -80.9951q16.499 -37.998 44.9971 -66.4961q28.499 -28.498 66.4961 -44.9971q37.998 -16.499 80.9951 -16.499q43.9971 0 81.9951 16.499t65.9961 44.9971t44.4971 66.4961q16.499 37.9971 16.499 80.9951h51.9971
q0 -53.9971 -20.499 -101.494t-55.9961 -82.9951q-35.498 -35.498 -82.9951 -55.9961q-47.4971 -20.499 -101.494 -20.499q-53.9961 0 -101.494 20.499q-47.4971 20.498 -82.9941 55.9961q-35.498 35.498 -55.9971 82.9951t-20.499 101.494q0 50.9961 17.999 95.9941
q17.999 44.9971 49.9971 79.9951q31.998 34.9971 74.9961 56.9961q42.9971 21.999 91.9941 26.998v210.987h51.9961v-261.983h-25.998q-42.9971 0 -80.9951 -16.499q-37.9971 -16.499 -66.4961 -44.498q-28.498 -27.998 -44.9971 -65.9951q-16.499 -37.998 -16.499 -81.9951
zM343.979 801.951h-51.9961v85.9941h51.9961v-85.9941z" />
    <glyph glyph-name="circumflex" unicode="&#x2c6;" horiz-adv-x="523" 
d="M265 674l-58 -45h-86l101 78v0h86v0l102 -78h-87l-58 45v0z" />
    <glyph glyph-name="acircumflex" unicode="&#xe2;" horiz-adv-x="608" 
d="M260 513q54 0 102 -20.5t83.5 -56t56 -83.5t20.5 -102v-250h-53v93q-35 -48 -89.5 -76t-119.5 -28q-54 0 -101.5 20.5t-83 56t-56 83t-20.5 101.5t20.5 102t56 83.5t83 56t101.5 20.5zM260 460q-43 0 -81 -16.5t-66.5 -44.5t-45 -66.5t-16.5 -81.5t16.5 -81t45 -66.5
t66.5 -45t81 -16.5t81.5 16.5t66.5 45t44.5 66.5t16.5 81t-16.5 81.5t-44.5 66.5t-66.5 44.5t-81.5 16.5zM264 674l-58 -45h-86l101 78v0h86v0l102 -78h-87l-58 45v0z" />
    <glyph glyph-name="ecircumflex" unicode="&#xea;" 
d="M473 274q-5 39 -23 72t-45.5 58t-63 39t-75.5 14t-76 -14t-63.5 -39t-45.5 -58t-23 -72h415zM266 -13q-54 0 -102 20.5t-83.5 56t-56 83t-20.5 101.5t20.5 102t56 83.5t83.5 56t102 20.5t101.5 -20.5t83 -56t56 -83.5t20.5 -102v-13t-1 -13h-12h-456q5 -39 23 -72
t45.5 -58t63.5 -39t76 -14q29 0 55 11t46 31l37 -37q-26 -26 -61.5 -41.5t-76.5 -15.5zM265 674l-58 -45h-86l101 78v0h86v0l102 -78h-87l-58 45v0z" />
    <glyph glyph-name="icircumflex" unicode="&#xee;" horiz-adv-x="290" 
d="M64 0h52v500h-52v-500zM88 674l-58 -45h-86l101 78v0h86v0l102 -78h-87l-58 45v0z" />
    <glyph glyph-name="ocircumflex" unicode="&#xf4;" horiz-adv-x="601" 
d="M260 512q54 0 101.5 -20.5t83 -56t56 -83.5t20.5 -102t-20.5 -101.5t-56 -83t-83 -56t-101.5 -20.5t-101.5 20.5t-83 56t-56 83t-20.5 101.5t20.5 102t56 83.5t83 56t101.5 20.5zM260 459q-44 0 -82 -16.5t-66 -44.5t-44.5 -66.5t-16.5 -81.5t16.5 -81t44.5 -66.5t66 -45
t82 -16.5q43 0 81 16.5t66.5 45t45 66.5t16.5 81t-16.5 81.5t-45 66.5t-66.5 44.5t-81 16.5zM261 674l-58 -45h-86l101 78v0h86v0l102 -78h-87l-58 45v0z" />
    <glyph glyph-name="ucircumflex" unicode="&#xfb;" horiz-adv-x="479" 
d="M196 -10q-41 0 -76.5 15.5t-62 42t-42 62t-15.5 76.5v315h52v-315q0 -30 11 -56.5t30.5 -46t46 -30.5t56.5 -11t56 11t45.5 30.5t30.5 46t11 56.5v315h53v-315q0 -41 -15.5 -76.5t-42 -62t-62.5 -42t-76 -15.5zM205 674l-58 -45h-86l101 78v0h86v0l102 -78h-87l-58 45v0z
" />
    <glyph glyph-name="acute" unicode="&#xb4;" horiz-adv-x="553" 
d="M230 607l70 122h60l-70 -122h-60v0z" />
    <glyph glyph-name="aacute" unicode="&#xe1;" horiz-adv-x="608" 
d="M260 513q54 0 102 -20.5t83.5 -56t56 -83.5t20.5 -102v-250h-53v93q-35 -48 -89.5 -76t-119.5 -28q-54 0 -101.5 20.5t-83 56t-56 83t-20.5 101.5t20.5 102t56 83.5t83 56t101.5 20.5zM260 460q-43 0 -81 -16.5t-66.5 -44.5t-45 -66.5t-16.5 -81.5t16.5 -81t45 -66.5
t66.5 -45t81 -16.5t81.5 16.5t66.5 45t44.5 66.5t16.5 81t-16.5 81.5t-44.5 66.5t-66.5 44.5t-81.5 16.5zM229 607l70 122h60l-70 -122h-60v0z" />
    <glyph glyph-name="eacute" unicode="&#xe9;" 
d="M473 274q-5 39 -23 72t-45.5 58t-63 39t-75.5 14t-76 -14t-63.5 -39t-45.5 -58t-23 -72h415zM266 -13q-54 0 -102 20.5t-83.5 56t-56 83t-20.5 101.5t20.5 102t56 83.5t83.5 56t102 20.5t101.5 -20.5t83 -56t56 -83.5t20.5 -102v-13t-1 -13h-12h-456q5 -39 23 -72
t45.5 -58t63.5 -39t76 -14q29 0 55 11t46 31l37 -37q-26 -26 -61.5 -41.5t-76.5 -15.5zM222 607l70 122h60l-70 -122h-60v0z" />
    <glyph glyph-name="iacute" unicode="&#xed;" horiz-adv-x="180" 
d="M1 0h52v500h-52v-500zM-2 607l70 122h60l-70 -122h-60v0z" />
    <glyph glyph-name="oacute" unicode="&#xf3;" horiz-adv-x="601" 
d="M260 512q54 0 101.5 -20.5t83 -56t56 -83.5t20.5 -102t-20.5 -101.5t-56 -83t-83 -56t-101.5 -20.5t-101.5 20.5t-83 56t-56 83t-20.5 101.5t20.5 102t56 83.5t83 56t101.5 20.5zM260 459q-44 0 -82 -16.5t-66 -44.5t-44.5 -66.5t-16.5 -81.5t16.5 -81t44.5 -66.5t66 -45
t82 -16.5q43 0 81 16.5t66.5 45t45 66.5t16.5 81t-16.5 81.5t-45 66.5t-66.5 44.5t-81 16.5zM216 607l70 122h60l-70 -122h-60v0z" />
    <glyph glyph-name="uacute" unicode="&#xfa;" horiz-adv-x="479" 
d="M196 -10q-41 0 -76.5 15.5t-62 42t-42 62t-15.5 76.5v315h52v-315q0 -30 11 -56.5t30.5 -46t46 -30.5t56.5 -11t56 11t45.5 30.5t30.5 46t11 56.5v315h53v-315q0 -41 -15.5 -76.5t-42 -62t-62.5 -42t-76 -15.5zM158 607l70 122h60l-70 -122h-60v0z" />
    <glyph glyph-name="yacute" unicode="&#xfd;" horiz-adv-x="494" 
d="M195 -10q-41 0 -76.5 15.5t-62 42t-42 62t-15.5 76.5v315h53v-315q0 -30 11 -56.5t30.5 -46t45.5 -30.5t56 -11t56 11t45.5 30.5t31 46t11.5 56.5v315h52v-315v-242q0 -41 -15.5 -76.5t-42 -62t-62 -42t-76.5 -15.5v52q30 0 56 11.5t45.5 31t31 45.5t11.5 56v109
q-27 -29 -64 -46t-80 -17zM152 607l70 122h60l-70 -122h-60v0z" />
    <glyph glyph-name="dieresis" unicode="&#xa8;" horiz-adv-x="556" 
d="M160 626v85h52v-85h-52zM340 626v85h52v-85h-52z" />
    <glyph glyph-name="adieresis" unicode="&#xe4;" horiz-adv-x="608" 
d="M260 513q54 0 102 -20.5t83.5 -56t56 -83.5t20.5 -102v-250h-53v93q-35 -48 -89.5 -76t-119.5 -28q-54 0 -101.5 20.5t-83 56t-56 83t-20.5 101.5t20.5 102t56 83.5t83 56t101.5 20.5zM260 460q-43 0 -81 -16.5t-66.5 -44.5t-45 -66.5t-16.5 -81.5t16.5 -81t45 -66.5
t66.5 -45t81 -16.5t81.5 16.5t66.5 45t44.5 66.5t16.5 81t-16.5 81.5t-44.5 66.5t-66.5 44.5t-81.5 16.5zM142 626v85h52v-85h-52zM322 626v85h52v-85h-52z" />
    <glyph glyph-name="edieresis" unicode="&#xeb;" 
d="M473 274q-5 39 -23 72t-45.5 58t-63 39t-75.5 14t-76 -14t-63.5 -39t-45.5 -58t-23 -72h415zM266 -13q-54 0 -102 20.5t-83.5 56t-56 83t-20.5 101.5t20.5 102t56 83.5t83.5 56t102 20.5t101.5 -20.5t83 -56t56 -83.5t20.5 -102v-13t-1 -13h-12h-456q5 -39 23 -72
t45.5 -58t63.5 -39t76 -14q29 0 55 11t46 31l37 -37q-26 -26 -61.5 -41.5t-76.5 -15.5zM151 626v85h52v-85h-52zM331 626v85h52v-85h-52z" />
    <glyph glyph-name="idieresis" unicode="&#xef;" horiz-adv-x="270" 
d="M75 500h52v-500h-52v500zM-16 626v85h52v-85h-52zM164 626v85h52v-85h-52z" />
    <glyph glyph-name="odieresis" unicode="&#xf6;" horiz-adv-x="601" 
d="M260 512q54 0 101.5 -20.5t83 -56t56 -83.5t20.5 -102t-20.5 -101.5t-56 -83t-83 -56t-101.5 -20.5t-101.5 20.5t-83 56t-56 83t-20.5 101.5t20.5 102t56 83.5t83 56t101.5 20.5zM260 459q-44 0 -82 -16.5t-66 -44.5t-44.5 -66.5t-16.5 -81.5t16.5 -81t44.5 -66.5t66 -45
t82 -16.5q43 0 81 16.5t66.5 45t45 66.5t16.5 81t-16.5 81.5t-45 66.5t-66.5 44.5t-81 16.5zM144 626v85h52v-85h-52zM324 626v85h52v-85h-52z" />
    <glyph glyph-name="udieresis" unicode="&#xfc;" horiz-adv-x="479" 
d="M196 -10q-41 0 -76.5 15.5t-62 42t-42 62t-15.5 76.5v315h52v-315q0 -30 11 -56.5t30.5 -46t46 -30.5t56.5 -11t56 11t45.5 30.5t30.5 46t11 56.5v315h53v-315q0 -41 -15.5 -76.5t-42 -62t-62.5 -42t-76 -15.5zM85 626v85h52v-85h-52zM265 626v85h52v-85h-52z" />
    <glyph glyph-name="ydieresis" unicode="&#xff;" horiz-adv-x="494" 
d="M195 -10q-41 0 -76.5 15.5t-62 42t-42 62t-15.5 76.5v315h53v-315q0 -30 11 -56.5t30.5 -46t45.5 -30.5t56 -11t56 11t45.5 30.5t31 46t11.5 56.5v315h52v-315v-242q0 -41 -15.5 -76.5t-42 -62t-62 -42t-76.5 -15.5v52q30 0 56 11.5t45.5 31t31 45.5t11.5 56v109
q-27 -29 -64 -46t-80 -17zM83 626v85h52v-85h-52zM263 626v85h52v-85h-52z" />
    <glyph glyph-name="grave" unicode="`" horiz-adv-x="637" 
d="M300 607l-70 122h60l70 -122h-60z" />
    <glyph glyph-name="agrave" unicode="&#xe0;" horiz-adv-x="608" 
d="M260 513q54 0 102 -20.5t83.5 -56t56 -83.5t20.5 -102v-250h-53v93q-35 -48 -89.5 -76t-119.5 -28q-54 0 -101.5 20.5t-83 56t-56 83t-20.5 101.5t20.5 102t56 83.5t83 56t101.5 20.5zM260 460q-43 0 -81 -16.5t-66.5 -44.5t-45 -66.5t-16.5 -81.5t16.5 -81t45 -66.5
t66.5 -45t81 -16.5t81.5 16.5t66.5 45t44.5 66.5t16.5 81t-16.5 81.5t-44.5 66.5t-66.5 44.5t-81.5 16.5zM240 607l-70 122h60l70 -122h-60z" />
    <glyph glyph-name="egrave" unicode="&#xe8;" 
d="M473 274q-5 39 -23 72t-45.5 58t-63 39t-75.5 14t-76 -14t-63.5 -39t-45.5 -58t-23 -72h415zM266 -13q-54 0 -102 20.5t-83.5 56t-56 83t-20.5 101.5t20.5 102t56 83.5t83.5 56t102 20.5t101.5 -20.5t83 -56t56 -83.5t20.5 -102v-13t-1 -13h-12h-456q5 -39 23 -72
t45.5 -58t63.5 -39t76 -14q29 0 55 11t46 31l37 -37q-26 -26 -61.5 -41.5t-76.5 -15.5zM242 607l-70 122h60l70 -122h-60z" />
    <glyph glyph-name="igrave" unicode="&#xec;" horiz-adv-x="192" 
d="M42 500h52v-500h-52v500zM52 607l-70 122h60l70 -122h-60z" />
    <glyph glyph-name="ograve" unicode="&#xf2;" horiz-adv-x="601" 
d="M260 512q54 0 101.5 -20.5t83 -56t56 -83.5t20.5 -102t-20.5 -101.5t-56 -83t-83 -56t-101.5 -20.5t-101.5 20.5t-83 56t-56 83t-20.5 101.5t20.5 102t56 83.5t83 56t101.5 20.5zM260 459q-44 0 -82 -16.5t-66 -44.5t-44.5 -66.5t-16.5 -81.5t16.5 -81t44.5 -66.5t66 -45
t82 -16.5q43 0 81 16.5t66.5 45t45 66.5t16.5 81t-16.5 81.5t-45 66.5t-66.5 44.5t-81 16.5zM236 607l-70 122h60l70 -122h-60z" />
    <glyph glyph-name="ugrave" unicode="&#xf9;" horiz-adv-x="479" 
d="M196 -10q-41 0 -76.5 15.5t-62 42t-42 62t-15.5 76.5v315h52v-315q0 -30 11 -56.5t30.5 -46t46 -30.5t56.5 -11t56 11t45.5 30.5t30.5 46t11 56.5v315h53v-315q0 -41 -15.5 -76.5t-42 -62t-62.5 -42t-76 -15.5zM186 607l-70 122h60l70 -122h-60z" />
    <glyph glyph-name="tilde" unicode="&#x2dc;" horiz-adv-x="608" 
d="M453 649q-38 -19 -81.5 -21t-85.5 16q-32 14 -65 12t-62 -18l-19 49q38 19 81.5 21t85.5 -16q32 -14 65 -12t62 18z" />
    <glyph glyph-name="atilde" unicode="&#xe3;" horiz-adv-x="608" 
d="M260 513q54 0 102 -20.5t83.5 -56t56 -83.5t20.5 -102v-250h-53v93q-35 -48 -89.5 -76t-119.5 -28q-54 0 -101.5 20.5t-83 56t-56 83t-20.5 101.5t20.5 102t56 83.5t83 56t101.5 20.5zM260 460q-43 0 -81 -16.5t-66.5 -44.5t-45 -66.5t-16.5 -81.5t16.5 -81t45 -66.5
t66.5 -45t81 -16.5t81.5 16.5t66.5 45t44.5 66.5t16.5 81t-16.5 81.5t-44.5 66.5t-66.5 44.5t-81.5 16.5zM421 649q-38 -19 -81.5 -21t-85.5 16q-32 14 -65 12t-62 -18l-19 49q38 19 81.5 21t85.5 -16q32 -14 65 -12t62 18z" />
    <glyph glyph-name="ntilde" unicode="&#xf1;" horiz-adv-x="601" 
d="M260 512q54 0 101.5 -20.5t83 -56t56 -83.5t20.5 -102v-250h-52v250q0 43 -16.5 81.5t-44.5 66.5t-66.5 44.5t-81.5 16.5t-81 -16.5t-66.5 -44.5t-45 -66.5t-16.5 -81.5v-250h-52v250q0 54 20.5 102t56 83.5t83 56t101.5 20.5zM418 649q-38 -19 -81.5 -21t-85.5 16
q-32 14 -65 12t-62 -18l-19 49q38 19 81.5 21t85.5 -16q32 -14 65 -12t62 18z" />
    <glyph glyph-name="otilde" unicode="&#xf5;" horiz-adv-x="601" 
d="M260 512q54 0 101.5 -20.5t83 -56t56 -83.5t20.5 -102t-20.5 -101.5t-56 -83t-83 -56t-101.5 -20.5t-101.5 20.5t-83 56t-56 83t-20.5 101.5t20.5 102t56 83.5t83 56t101.5 20.5zM260 459q-44 0 -82 -16.5t-66 -44.5t-44.5 -66.5t-16.5 -81.5t16.5 -81t44.5 -66.5t66 -45
t82 -16.5q43 0 81 16.5t66.5 45t45 66.5t16.5 81t-16.5 81.5t-45 66.5t-66.5 44.5t-81 16.5zM418 649q-38 -19 -81.5 -21t-85.5 16q-32 14 -65 12t-62 -18l-19 49q38 19 81.5 21t85.5 -16q32 -14 65 -12t62 18z" />
    <glyph glyph-name="thorn" unicode="&#xfe;" horiz-adv-x="619" 
d="M261 511q54 0 102 -20.5t83.5 -56t56 -83t20.5 -101.5t-20.5 -101.5t-56 -83t-83.5 -56t-102 -20.5q-65 0 -119.5 28.5t-89.5 76.5v-247h-52v903h52v-343q36 48 90.5 76t118.5 28zM261 459q-43 0 -81 -16.5t-66.5 -45t-45 -66.5t-16.5 -81q0 -44 16.5 -82t45 -66
t66.5 -44.5t81 -16.5t81.5 16.5t66.5 44.5t44.5 66t16.5 82q0 43 -16.5 81t-44.5 66.5t-66.5 45t-81.5 16.5z" />
    <glyph glyph-name="Thorn" unicode="&#xde;" horiz-adv-x="523" 
d="M52 562h191q40 0 76 -15.5t62.5 -42t42 -62.5t15.5 -76q0 -41 -15.5 -76.5t-42 -62t-62.5 -42t-76 -15.5h-191v-170h-52v170v196v196v170h52v-170zM386 366q0 30 -11 56t-30.5 45.5t-45.5 31t-56 11.5h-191v-144v-144h191q30 0 56 11t45.5 30.5t30.5 46t11 56.5z" />
    <glyph glyph-name="germandbls" unicode="&#xdf;" horiz-adv-x="540" 
d="M243 732q40 0 76 -15.5t62.5 -42t42 -62.5t15.5 -76q0 -53 -24.5 -96.5t-66.5 -69.5q48 -24 77.5 -70.5t29.5 -103.5q0 -41 -15.5 -76.5t-42 -62t-62.5 -42t-76 -15.5h-141v52h141q30 0 56 11.5t45.5 31t30.5 45.5t11 56q0 34 -13 61t-34.5 45.5t-50.5 28t-61 9.5h-191
v-144v-296h-52v440v196q0 40 15.5 76t42 62.5t62 42t76.5 15.5h47zM196 679q-30 0 -56 -11t-45.5 -30.5t-31 -45.5t-11.5 -56v-144h191q30 0 56 11t45.5 30.5t30.5 46t11 56.5t-11 56t-30.5 45.5t-45.5 30.5t-56 11h-47z" />
    <glyph glyph-name="Agrave" unicode="&#xc0;" horiz-adv-x="625" 
d="M471 479q0 43 -16.5 81t-45 66.5t-66.5 45t-81 16.5q-44 0 -82 -16.5t-66 -45t-44.5 -66.5t-16.5 -81v-148h418v148zM53 279v-279h-53v479q0 54 20.5 101.5t56 83t83.5 56t102 20.5t101.5 -20.5t83 -56t56 -83t20.5 -101.5v-148v-52v-279h-52v279h-418zM248 816l-70 122
h60l70 -122h-60z" />
    <glyph glyph-name="Egrave" unicode="&#xc8;" horiz-adv-x="531" 
d="M1 705v0v27h439v-53h-387v-287h338v-53h-338v-287h387v-52h-439v0v0v705zM218 816l-70 122h60l70 -122h-60z" />
    <glyph glyph-name="Igrave" unicode="&#xcc;" horiz-adv-x="204" 
d="M56 732h52v-732h-52v732zM65 816l-70 122h60l70 -122h-60z" />
    <glyph glyph-name="Ograve" unicode="&#xd2;" 
d="M523 250q0 -54 -20.5 -101.5t-56 -83t-83 -56t-101.5 -20.5t-102 20.5t-83.5 56t-56 83t-20.5 101.5v230q0 54 20.5 101.5t56 83t83.5 56t102 20.5t101.5 -20.5t83 -56t56 -83t20.5 -101.5v-230zM471 480q0 43 -16.5 81t-45 66.5t-66.5 45t-81 16.5q-44 0 -82 -16.5
t-66 -45t-44.5 -66.5t-16.5 -81v-230q0 -43 16.5 -81t44.5 -66.5t66 -45t82 -16.5q43 0 81 16.5t66.5 45t45 66.5t16.5 81v230zM248 816l-70 122h60l70 -122h-60z" />
    <glyph glyph-name="Ugrave" unicode="&#xd9;" horiz-adv-x="615" 
d="M522 253q0 -54 -20.5 -101.5t-56 -83t-83 -56t-101.5 -20.5t-102 20.5t-83.5 56t-56 83t-20.5 101.5v479h53v-479q0 -43 16.5 -81t44.5 -66.5t66 -45t82 -16.5q43 0 81 16.5t66.5 45t45 66.5t16.5 81v479h52v-479zM248 816l-70 122h60l70 -122h-60z" />
    <glyph glyph-name="Aacute" unicode="&#xc1;" horiz-adv-x="625" 
d="M471 479q0 43 -16.5 81t-45 66.5t-66.5 45t-81 16.5q-44 0 -82 -16.5t-66 -45t-44.5 -66.5t-16.5 -81v-148h418v148zM53 279v-279h-53v479q0 54 20.5 101.5t56 83t83.5 56t102 20.5t101.5 -20.5t83 -56t56 -83t20.5 -101.5v-148v-52v-279h-52v279h-418zM226 816l70 122
h60l-70 -122h-60v0z" />
    <glyph glyph-name="Eacute" unicode="&#xc9;" horiz-adv-x="531" 
d="M1 705v0v27h439v-53h-387v-287h338v-53h-338v-287h387v-52h-439v0v0v705zM186 816l70 122h60l-70 -122h-60v0z" />
    <glyph glyph-name="Iacute" unicode="&#xcd;" horiz-adv-x="147" 
d="M-1 732h52v-732h-52v732zM-3 816l70 122h60l-70 -122h-60v0z" />
    <glyph glyph-name="Oacute" unicode="&#xd3;" 
d="M523 250q0 -54 -20.5 -101.5t-56 -83t-83 -56t-101.5 -20.5t-102 20.5t-83.5 56t-56 83t-20.5 101.5v230q0 54 20.5 101.5t56 83t83.5 56t102 20.5t101.5 -20.5t83 -56t56 -83t20.5 -101.5v-230zM471 480q0 43 -16.5 81t-45 66.5t-66.5 45t-81 16.5q-44 0 -82 -16.5
t-66 -45t-44.5 -66.5t-16.5 -81v-230q0 -43 16.5 -81t44.5 -66.5t66 -45t82 -16.5q43 0 81 16.5t66.5 45t45 66.5t16.5 81v230zM226 816l70 122h60l-70 -122h-60v0z" />
    <glyph glyph-name="Uacute" unicode="&#xda;" horiz-adv-x="615" 
d="M522 253q0 -54 -20.5 -101.5t-56 -83t-83 -56t-101.5 -20.5t-102 20.5t-83.5 56t-56 83t-20.5 101.5v479h53v-479q0 -43 16.5 -81t44.5 -66.5t66 -45t82 -16.5q43 0 81 16.5t66.5 45t45 66.5t16.5 81v479h52v-479zM226 816l70 122h60l-70 -122h-60v0z" />
    <glyph glyph-name="Yacute" unicode="&#xdd;" horiz-adv-x="630" 
d="M278 349l10 17l179 311l32 55h60l-217 -377v0l-38 -65v-290h-52v290l-36 62v0l-219 380h60l44 -77l168 -289zM226 816l70 122h60l-70 -122h-60v0z" />
    <glyph glyph-name="Acircumflex" unicode="&#xc2;" horiz-adv-x="625" 
d="M471 479q0 43 -16.5 81t-45 66.5t-66.5 45t-81 16.5q-44 0 -82 -16.5t-66 -45t-44.5 -66.5t-16.5 -81v-148h418v148zM53 279v-279h-53v479q0 54 20.5 101.5t56 83t83.5 56t102 20.5t101.5 -20.5t83 -56t56 -83t20.5 -101.5v-148v-52v-279h-52v279h-418zM263 879l-58 -45
h-86l101 78v0h86v0l102 -78h-87l-58 45v0z" />
    <glyph glyph-name="Ecircumflex" unicode="&#xca;" horiz-adv-x="531" 
d="M1 705v0v27h439v-53h-387v-287h338v-53h-338v-287h387v-52h-439v0v0v705zM223 879l-58 -45h-86l101 78v0h86v0l102 -78h-87l-58 45v0z" />
    <glyph glyph-name="Icircumflex" unicode="&#xce;" horiz-adv-x="233" 
d="M46 732h52v-732h-52v732zM70 879l-58 -45h-86l101 78v0h86v0l102 -78h-87l-58 45v0z" />
    <glyph glyph-name="Ocircumflex" unicode="&#xd4;" 
d="M523 250q0 -54 -20.5 -101.5t-56 -83t-83 -56t-101.5 -20.5t-102 20.5t-83.5 56t-56 83t-20.5 101.5v230q0 54 20.5 101.5t56 83t83.5 56t102 20.5t101.5 -20.5t83 -56t56 -83t20.5 -101.5v-230zM471 480q0 43 -16.5 81t-45 66.5t-66.5 45t-81 16.5q-44 0 -82 -16.5
t-66 -45t-44.5 -66.5t-16.5 -81v-230q0 -43 16.5 -81t44.5 -66.5t66 -45t82 -16.5q43 0 81 16.5t66.5 45t45 66.5t16.5 81v230zM263 879l-58 -45h-86l101 78v0h86v0l102 -78h-87l-58 45v0z" />
    <glyph glyph-name="Ucircumflex" unicode="&#xdb;" horiz-adv-x="615" 
d="M522 253q0 -54 -20.5 -101.5t-56 -83t-83 -56t-101.5 -20.5t-102 20.5t-83.5 56t-56 83t-20.5 101.5v479h53v-479q0 -43 16.5 -81t44.5 -66.5t66 -45t82 -16.5q43 0 81 16.5t66.5 45t45 66.5t16.5 81v479h52v-479zM263 879l-58 -45h-86l101 78v0h86v0l102 -78h-87l-58 45
v0z" />
    <glyph glyph-name="Atilde" unicode="&#xc3;" horiz-adv-x="625" 
d="M471 479q0 43 -16.5 81t-45 66.5t-66.5 45t-81 16.5q-44 0 -82 -16.5t-66 -45t-44.5 -66.5t-16.5 -81v-148h418v148zM53 279v-279h-53v479q0 54 20.5 101.5t56 83t83.5 56t102 20.5t101.5 -20.5t83 -56t56 -83t20.5 -101.5v-148v-52v-279h-52v279h-418zM420 852
q-38 -19 -81.5 -21t-85.5 16q-32 14 -65 12t-62 -18l-19 49q38 19 81.5 21t85.5 -16q32 -14 65 -12t62 18z" />
    <glyph glyph-name="Adieresis" unicode="&#xc4;" horiz-adv-x="625" 
d="M471 479q0 43 -16.5 81t-45 66.5t-66.5 45t-81 16.5q-44 0 -82 -16.5t-66 -45t-44.5 -66.5t-16.5 -81v-148h418v148zM53 279v-279h-53v479q0 54 20.5 101.5t56 83t83.5 56t102 20.5t101.5 -20.5t83 -56t56 -83t20.5 -101.5v-148v-52v-279h-52v279h-418zM146 831v85h52
v-85h-52zM326 831v85h52v-85h-52z" />
    <glyph glyph-name="Edieresis" unicode="&#xcb;" horiz-adv-x="531" 
d="M1 705v0v27h439v-53h-387v-287h338v-53h-338v-287h387v-52h-439v0v0v705zM106 831v85h52v-85h-52zM286 831v85h52v-85h-52z" />
    <glyph glyph-name="Idieresis" unicode="&#xcf;" horiz-adv-x="246" 
d="M62 732h52v-732h-52v732zM-24 831v85h52v-85h-52zM156 831v85h52v-85h-52z" />
    <glyph glyph-name="Odieresis" unicode="&#xd6;" 
d="M523 250q0 -54 -20.5 -101.5t-56 -83t-83 -56t-101.5 -20.5t-102 20.5t-83.5 56t-56 83t-20.5 101.5v230q0 54 20.5 101.5t56 83t83.5 56t102 20.5t101.5 -20.5t83 -56t56 -83t20.5 -101.5v-230zM471 480q0 43 -16.5 81t-45 66.5t-66.5 45t-81 16.5q-44 0 -82 -16.5
t-66 -45t-44.5 -66.5t-16.5 -81v-230q0 -43 16.5 -81t44.5 -66.5t66 -45t82 -16.5q43 0 81 16.5t66.5 45t45 66.5t16.5 81v230zM146 831v85h52v-85h-52zM326 831v85h52v-85h-52z" />
    <glyph glyph-name="Udieresis" unicode="&#xdc;" horiz-adv-x="615" 
d="M522 253q0 -54 -20.5 -101.5t-56 -83t-83 -56t-101.5 -20.5t-102 20.5t-83.5 56t-56 83t-20.5 101.5v479h53v-479q0 -43 16.5 -81t44.5 -66.5t66 -45t82 -16.5q43 0 81 16.5t66.5 45t45 66.5t16.5 81v479h52v-479zM146 831v85h52v-85h-52zM326 831v85h52v-85h-52z" />
    <glyph glyph-name="Ydieresis" unicode="&#x178;" horiz-adv-x="630" 
d="M278 349l10 17l179 311l32 55h60l-217 -377v0l-38 -65v-290h-52v290l-36 62v0l-219 380h60l44 -77l168 -289zM161 831v85h52v-85h-52zM341 831v85h52v-85h-52z" />
    <glyph glyph-name="Ntilde" unicode="&#xd1;" horiz-adv-x="619" 
d="M471 479q0 43 -16.5 81t-45 66.5t-66.5 45t-81 16.5q-44 0 -82 -16.5t-66 -45t-44.5 -66.5t-16.5 -81v-479h-52v479q0 54 20.5 101.5t56 83t83 56t101.5 20.5t101.5 -20.5t83 -56t56 -83t20.5 -101.5v-479h-52v479v0zM419 853q-38 -19 -81.5 -21t-85.5 16q-32 14 -65 12
t-62 -18l-19 49q38 19 81.5 21t85.5 -16q32 -14 65 -12t62 18z" />
    <glyph glyph-name="Otilde" unicode="&#xd5;" 
d="M523 250q0 -54 -20.5 -101.5t-56 -83t-83 -56t-101.5 -20.5t-102 20.5t-83.5 56t-56 83t-20.5 101.5v230q0 54 20.5 101.5t56 83t83.5 56t102 20.5t101.5 -20.5t83 -56t56 -83t20.5 -101.5v-230zM471 480q0 43 -16.5 81t-45 66.5t-66.5 45t-81 16.5q-44 0 -82 -16.5
t-66 -45t-44.5 -66.5t-16.5 -81v-230q0 -43 16.5 -81t44.5 -66.5t66 -45t82 -16.5q43 0 81 16.5t66.5 45t45 66.5t16.5 81v230zM419 853q-38 -19 -81.5 -21t-85.5 16q-32 14 -65 12t-62 -18l-19 49q38 19 81.5 21t85.5 -16q32 -14 65 -12t62 18z" />
    <glyph glyph-name="caron" unicode="&#x2c7;" horiz-adv-x="530" 
d="M323 707h87l-102 -78v0h-86v0l-101 78h86l58 -45z" />
    <glyph glyph-name="zcaron" unicode="&#x17e;" horiz-adv-x="431" 
d="M0 0l258 448h-234v52h264h61l-259 -448h238v-52h-268h-60zM238 707h87l-102 -78v0h-86v0l-101 78h86l58 -45z" />
    <glyph glyph-name="scaron" unicode="&#x161;" horiz-adv-x="427" 
d="M128 230q-26 0 -49.5 9.5t-41 26t-28 39t-11.5 48.5q-2 14 0 30q1 26 11.5 48.5t28 39t41 26t49.5 9.5h188v-52h-188q-31 0 -53.5 -21t-24.5 -52q-2 -13 0 -26q2 -31 24.5 -52t53.5 -21h74h1q26 0 49.5 -9.5t41 -26.5t28 -39.5t11.5 -48.5v-27v-1v-2q0 -27 -10.5 -50
t-28.5 -40.5t-41.5 -27.5t-50.5 -10h-193v52h193q29 0 51 18.5t27 47.5q0 3 0.5 6.5t0.5 6.5v21q-1 32 -24 55t-55 23h-74zM222 707h87l-102 -78v0h-86v0l-101 78h86l58 -45z" />
    <glyph glyph-name="Zcaron" unicode="&#x17d;" horiz-adv-x="565" 
d="M414 732h60l-121 -211v0l-271 -469h407v-52h-437v0v0h-61l301 521l92 158h-341v53h371v0zM322 916h87l-102 -78v0h-86v0l-101 78h86l58 -45z" />
    <glyph glyph-name="Scaron" unicode="&#x160;" horiz-adv-x="545" 
d="M421 732v-53h-227q-30 0 -56 -11.5t-45.5 -31t-30.5 -45.5t-11 -56t11 -56t30.5 -45.5t45.5 -30.5t56 -11h66q40 0 76 -15.5t62.5 -42t42 -62.5t15.5 -76q0 -41 -15.5 -76.5t-42 -62t-62.5 -42t-76 -15.5h-227v52h227q30 0 56 11t45.5 30.5t31 46t11.5 56.5t-11.5 56
t-31 45.5t-45.5 30.5t-56 11h-66q-41 0 -76.5 15.5t-62 42t-42 62t-15.5 76.5t15.5 77t42 62.5t62 42t76.5 15.5h227zM330 1146h87l-102 -78v0h-86v0l-101 78h86l58 -45zM293 916h87l-102 -78v0h-86v0l-101 78h86l58 -45z" />
    <glyph glyph-name="dotlessi" unicode="&#x131;" horiz-adv-x="151" 
d="M1 500h52v-500h-52v500z" />
    <glyph glyph-name="Lslash" unicode="&#x141;" horiz-adv-x="636" 
d="M90 732h53v-320l102 42v-57l-102 -42v-303h412v-52h-438v0h-27v334l-94 -39v56l94 39v342v0z" />
    <glyph glyph-name="lslash" unicode="&#x142;" horiz-adv-x="327" 
d="M98 750h53v-337l98 41v-57l-98 -40v-238q0 -32 23 -55t55 -23v-52q-27 0 -51 10t-41.5 28t-28 41.5t-10.5 50.5v216l-98 -40v56l98 41v358z" />
    <glyph glyph-name="fraction" unicode="&#x2044;" horiz-adv-x="580" 
d="M-5 3l419 731h61l-420 -731h-60z" />
    <glyph glyph-name="asciitilde" unicode="~" horiz-adv-x="793" 
d="M185 380q54 0 101.5 -20.5t83.5 -55.5q28 -29 66 -45t81 -16q44 0 81.5 16t66.5 45l37 -37q-35 -35 -82.5 -56t-102.5 -21q-54 0 -101.5 21t-82.5 56q-29 29 -67 45t-81 16q-44 0 -81.5 -16t-66.5 -45l-37 37q35 35 83 55.5t102 20.5z" />
    <glyph glyph-name="quotesinglbase" unicode="&#x201a;" horiz-adv-x="193" 
d="M-13 -145l2 2q28 28 44 65.5t16 80.5v85h52v-85q0 -54 -20 -101t-55 -83l-2 -1z" />
    <glyph glyph-name="quotedblbase" unicode="&#x201e;" horiz-adv-x="337" 
d="M-13 -145l2 2q28 28 44 65.5t16 80.5v85h52v-85q0 -54 -20 -101t-55 -83l-2 -1zM107 -145l2 2q28 28 44 65.5t16 80.5v85h52v-85q0 -54 -20 -101t-55 -83l-2 -1z" />
    <glyph glyph-name="ellipsis" unicode="&#x2026;" horiz-adv-x="420" 
d="M-1 88h53v-85h-53v85zM139 88h53v-85h-53v85zM279 88h53v-85h-53v85z" />
    <glyph glyph-name="quoteleft" unicode="&#x2018;" horiz-adv-x="200" 
d="M108 710l-1 -2q-28 -28 -44 -65.5t-16 -80.5v-85h-52v85q0 54 20 101t55 83l1 1z" />
    <glyph glyph-name="quoteright" unicode="&#x2019;" horiz-adv-x="217" 
d="M-5 514l1 2q28 28 44 65.5t16 80.5v85h52v-85q0 -54 -20 -101t-55 -83l-1 -1z" />
    <glyph glyph-name="quotedblleft" unicode="&#x201c;" horiz-adv-x="330" 
d="M108 710l-1 -2q-28 -28 -44 -65.5t-16 -80.5v-85h-52v85q0 54 20 101t55 83l1 1zM228 710l-1 -2q-28 -28 -44 -65.5t-16 -80.5v-85h-52v85q0 54 20 101t55 83l1 1z" />
    <glyph glyph-name="quotedblright" unicode="&#x201d;" horiz-adv-x="337" 
d="M115 514l1 2q28 28 44 65.5t16 80.5v85h52v-85q0 -54 -20 -101t-55 -83l-1 -1zM-5 514l1 2q28 28 44 65.5t16 80.5v85h52v-85q0 -54 -20 -101t-55 -83l-1 -1z" />
    <glyph glyph-name="bullet" unicode="&#x2022;" horiz-adv-x="283" 
d="M0 397h174v-175h-174v175v0z" />
    <glyph glyph-name="endash" unicode="&#x2013;" horiz-adv-x="530" 
d="M419 273h-420v53h420v-53z" />
    <glyph glyph-name="emdash" unicode="&#x2014;" horiz-adv-x="620" 
d="M509 273h-510v53h510v-53z" />
    <glyph glyph-name="guilsinglleft" unicode="&#x2039;" horiz-adv-x="330" 
d="M74 285l156 -156v-73l-193 192v0l-37 37l37 37v0l193 193v-74l-156 -156v0z" />
    <glyph glyph-name="guilsinglright" unicode="&#x203a;" horiz-adv-x="323" 
d="M156 285l-156 156v74l193 -193v0l37 -37l-37 -37v0l-193 -192v73z" />
    <glyph glyph-name="guillemotleft" unicode="&#xab;" horiz-adv-x="480" 
d="M230 129v-73l-193 192v0l-37 37l37 37v0l193 193v-74l-156 -156zM380 129v-73l-193 192v0l-37 37l37 37v0l193 193v-74l-156 -156z" />
    <glyph glyph-name="guillemotright" unicode="&#xbb;" horiz-adv-x="480" 
d="M306 285l-156 156v74l193 -193v0l37 -37l-37 -37v0l-193 -192v73zM156 285l-156 156v74l193 -193v0l37 -37l-37 -37v0l-193 -192v73z" />
    <glyph glyph-name="minus" unicode="&#x2212;" horiz-adv-x="497" 
d="M389 273h-390v53h390v-53z" />
    <glyph glyph-name="plusminus" unicode="&#xb1;" horiz-adv-x="510" 
d="M400 1h-401v53h401v-53zM178 557h52v-179h180v-53h-180v-179h-52v179h-179v53h179v179z" />
    <glyph glyph-name="cent" unicode="&#xa2;" horiz-adv-x="472" 
d="M214 -7q-46 8 -85 31.5t-67.5 57.5t-45 77t-16.5 91t16.5 91t45 77t67.5 57.5t85 31.5v68h52v-64q39 -1 73.5 -16t60.5 -41l-37 -37q-19 19 -43.5 30t-53.5 12v-418q29 1 53.5 12t43.5 30l37 -37q-26 -26 -60.5 -41t-73.5 -16v-64h-52v68zM214 454q-35 -8 -64.5 -27
t-51.5 -46t-34 -60.5t-12 -70.5t12 -70.5t34 -60.5t51.5 -46t64.5 -27v408z" />
    <glyph glyph-name="currency" unicode="&#xa4;" horiz-adv-x="407" 
d="M156 416q39 0 72 -22l47 47q11 -8 20 -17t17 -19l-47 -47q22 -33 22 -73q0 -39 -22 -72l47 -47q-16 -21 -37 -37l-47 47q-16 -10 -34 -15.5t-38 -5.5t-38 5.5t-34 15.5l-47 -47q-21 16 -37 37l47 47q-22 33 -22 72q0 40 22 73l-47 47q8 10 17 19t20 17l47 -47
q33 22 72 22zM156 364q-32 0 -55 -23t-23 -56q0 -32 23 -55t55 -23t55 23t23 55q0 33 -23 56t-55 23z" />
    <glyph glyph-name="brokenbar" unicode="&#xa6;" horiz-adv-x="150" 
d="M-1 -184v421h52v-421h-52zM51 755v-352h-52v352h52z" />
    <glyph glyph-name="section" unicode="&#xa7;" horiz-adv-x="557" 
d="M71 566q-3 -15 -3 -30q0 -30 11 -56.5t30.5 -46t45.5 -30.5t56 -11h66q42 0 78 -16t62 -43q3 13 3 30q0 30 -11 56t-30.5 45.5t-45.5 31t-56 11.5h-66q-42 0 -77.5 16t-62.5 43zM454 280q19 -41 19 -84q0 -41 -15.5 -76.5t-42 -62t-62.5 -42t-76 -15.5h-227v52h227
q30 0 56 11t45.5 30.5t30.5 46t11 56.5t-11 56t-30.5 45.5t-45.5 31t-56 11.5h-66v-1q-41 0 -76.5 15.5t-62 42t-42 62.5t-15.5 77q0 43 19 83q-19 41 -19 84q0 40 15.5 76t42 62.5t62 42t76.5 15.5h197v-52h-197q-30 0 -56 -11.5t-45.5 -31t-30.5 -45.5t-11 -56t11 -56
t30.5 -45.5t45.5 -31t56 -11.5h66q40 0 76 -15.5t62.5 -42t42 -62t15.5 -76.5q0 -43 -19 -83z" />
    <glyph glyph-name="Eth" unicode="&#xd0;" horiz-adv-x="683" 
d="M143 52h190q43 0 81.5 16.5t66.5 45t44.5 66.5t16.5 81v209q0 43 -16.5 81.5t-44.5 66.5t-66.5 44.5t-81.5 16.5h-190v-279h91v-52h-91v-296zM91 348h-91v52h91v332h242q54 0 102 -20.5t83.5 -56t56 -83.5t20.5 -102v-209q0 -54 -20.5 -101.5t-56 -83t-83.5 -56
t-102 -20.5h-242v3v345z" />
    <glyph glyph-name="eth" unicode="&#xf0;" horiz-adv-x="657" 
d="M261 511q65 0 119 -28t90 -76v145h-91v52h91v146h52v-146h91v-52h-91v-302q0 -54 -20.5 -102t-56 -83.5t-83 -56t-101.5 -20.5t-101.5 20.5t-83 56t-56 83.5t-20.5 102t20.5 101.5t56 83t83 56t101.5 20.5zM261 459q-43 0 -81 -16.5t-66.5 -45t-45 -66.5t-16.5 -81
q0 -44 16.5 -82t45 -66t66.5 -44.5t81 -16.5t81.5 16.5t66.5 44.5t44.5 66t16.5 82q0 43 -16.5 81t-44.5 66.5t-66.5 45t-81.5 16.5z" />
    <glyph glyph-name="Oslash" unicode="&#xd8;" 
d="M522 249q0 -54 -20.5 -101.5t-56 -83t-83 -56t-101.5 -20.5q-65 0 -120 29l-9 -19h-56l20 48q-45 36 -70.5 88.5t-25.5 114.5v230q0 54 20.5 101.5t56 83t83 56t101.5 20.5q33 0 63.5 -7.5t57.5 -21.5l8 18h57l-21 -48q45 -35 70.5 -87.5t25.5 -114.5v-230zM161 65
q47 -25 100 -25q43 0 81.5 16.5t66.5 45t44.5 66.5t16.5 81v230q0 45 -17.5 84t-48.5 68zM361 662q-46 26 -100 26q-43 0 -81 -16.5t-66.5 -45t-45 -66.5t-16.5 -81v-230q0 -45 17.5 -84t48.5 -68z" />
    <glyph glyph-name="oslash" unicode="&#xf8;" horiz-adv-x="601" 
d="M261 511q41 0 79 -12v1h57l-9 -22q60 -33 97 -93.5t37 -134.5q0 -54 -20.5 -102t-56 -83.5t-83 -56t-101.5 -20.5q-20 0 -40 3.5t-39 8.5h-57l9 21q-60 34 -97 94t-37 135q0 54 20.5 101.5t56 83t83 56t101.5 20.5zM319 451q-29 8 -58 8q-43 0 -81 -16.5t-66.5 -45
t-45 -66.5t-16.5 -81q0 -58 28 -105.5t75 -75.5zM203 49q30 -8 58 -8q43 0 81.5 16.5t66.5 44.5t44.5 66t16.5 82q0 58 -28 105.5t-75 74.5z" />
    <glyph glyph-name="ccedilla" unicode="&#xe7;" horiz-adv-x="472" 
d="M233 -10q-49 5 -91.5 27.5t-74 57t-49.5 79.5t-18 96q0 54 20.5 101.5t56 83t83 56t101.5 20.5q41 0 76.5 -15.5t62.5 -41.5l-37 -37q-20 20 -46 31t-56 11q-43 0 -81 -16.5t-66.5 -45t-45 -66.5t-16.5 -81q0 -44 16.5 -82t45 -66t66.5 -44.5t81 -16.5q30 0 56 11t46 31
l37 -37q-23 -23 -52 -37.5t-63 -18.5q-2 -51 -22 -94.5t-53 -77.5l-1 -1l-37 37l2 1q26 26 41.5 61t17.5 74z" />
    <glyph glyph-name="Ccedilla" unicode="&#xc7;" horiz-adv-x="583" 
d="M261 740q73 0 132.5 -35.5t93.5 -95.5l-45 -26q-27 48 -75 76.5t-106 28.5q-43 0 -81 -16.5t-66.5 -45t-45 -66.5t-16.5 -81v-230q0 -43 16.5 -81t45 -66.5t66.5 -45t81 -16.5q58 0 106 28.5t75 75.5l45 -26q-30 -53 -81.5 -87t-114.5 -42q-2 -50 -22 -94t-53 -77l-1 -1
l-37 37l1 1q26 26 41.5 60.5t17.5 73.5q-50 4 -93.5 26t-75.5 57t-50.5 80.5t-18.5 96.5v230q0 54 20.5 101.5t56 83t83 56t101.5 20.5z" />
    <glyph glyph-name="multiply" unicode="&#xd7;" horiz-adv-x="453" 
d="M347 384l37 -37l-155 -155l155 -155l-37 -37l-155 155l-155 -155l-37 37l155 155l-155 155l37 37l155 -155l155 155v0z" />
    <glyph glyph-name="divide" unicode="&#xf7;" horiz-adv-x="603" 
d="M219 490h52v-75h-52v75v0zM271 271h136h83v-52h-80h-139h-52h-107h-112v52h109h110h52v0zM271 75v-75h-52v75h52v0z" />
    <glyph glyph-name="periodcentered" unicode="&#xb7;" horiz-adv-x="147" 
d="M-1 288h53v-85h-53v85z" />
    <glyph glyph-name="dagger" unicode="&#x2020;" horiz-adv-x="483" 
d="M392 273h-169v-457h-52v457h-169v53h169v429h52v-429h169v-53z" />
    <glyph glyph-name="daggerdbl" unicode="&#x2021;" horiz-adv-x="450" 
d="M158 424v331h52v-331h160v-52h-160v-139h160v-52h-160v-365h-52v365h-159v52h159v139h-159v52h159z" />
    <glyph glyph-name="perthousand" unicode="&#x2030;" horiz-adv-x="920" 
d="M23 0l419 731h60l-419 -731h-60zM131 720q27 0 51 -10.5t41.5 -28t28 -41.5t10.5 -51t-10.5 -50.5t-28 -41.5t-41.5 -28t-51 -10t-51 10t-41.5 28t-28 41.5t-10.5 50.5t10.5 51t28 41.5t41.5 28t51 10.5zM131 668q-32 0 -55 -23t-23 -56q0 -32 23 -55t55 -23t55 23t23 55
q0 33 -23 56t-55 23zM394 266q27 0 50.5 -10t41.5 -28t28 -41.5t10 -50.5t-10 -51t-28 -41.5t-41.5 -28t-50.5 -10.5t-51 10.5t-41.5 28t-28 41.5t-10.5 51t10.5 50.5t28 41.5t41.5 28t51 10zM394 214q-33 0 -56 -23t-23 -55q0 -33 23 -56t56 -23q32 0 55 23t23 56
q0 32 -23 55t-55 23zM694 266q27 0 50.5 -10t41.5 -28t28 -41.5t10 -50.5t-10 -51t-28 -41.5t-41.5 -28t-50.5 -10.5t-51 10.5t-41.5 28t-28 41.5t-10.5 51t10.5 50.5t28 41.5t41.5 28t51 10zM694 214q-33 0 -56 -23t-23 -55q0 -33 23 -56t56 -23q32 0 55 23t23 56
q0 32 -23 55t-55 23z" />
    <glyph glyph-name="ring" unicode="&#x2da;" horiz-adv-x="370" 
d="M130 752q35 0 59.5 -24.5t24.5 -59.5t-24.5 -59.5t-59.5 -24.5t-59 24.5t-24 59.5t24 59.5t59 24.5zM130 718q-20 0 -35 -15t-15 -35t15 -35t35 -15q21 0 35.5 15t14.5 35t-14.5 35t-35.5 15z" />
    <glyph glyph-name="aring" unicode="&#xe5;" horiz-adv-x="608" 
d="M260 513q54 0 102 -20.5t83.5 -56t56 -83.5t20.5 -102v-250h-53v93q-35 -48 -89.5 -76t-119.5 -28q-54 0 -101.5 20.5t-83 56t-56 83t-20.5 101.5t20.5 102t56 83.5t83 56t101.5 20.5zM260 460q-43 0 -81 -16.5t-66.5 -44.5t-45 -66.5t-16.5 -81.5t16.5 -81t45 -66.5
t66.5 -45t81 -16.5t81.5 16.5t66.5 45t44.5 66.5t16.5 81t-16.5 81.5t-44.5 66.5t-66.5 44.5t-81.5 16.5zM260 726q35 0 59.5 -24.5t24.5 -59.5t-24.5 -59.5t-59.5 -24.5t-59 24.5t-24 59.5t24 59.5t59 24.5zM260 692q-20 0 -35 -15t-15 -35t15 -35t35 -15q21 0 35.5 15
t14.5 35t-14.5 35t-35.5 15z" />
    <glyph glyph-name="Aring" unicode="&#xc5;" horiz-adv-x="625" 
d="M471 479q0 43 -16.5 81t-45 66.5t-66.5 45t-81 16.5q-44 0 -82 -16.5t-66 -45t-44.5 -66.5t-16.5 -81v-148h418v148zM53 279v-279h-53v479q0 54 20.5 101.5t56 83t83.5 56t102 20.5t101.5 -20.5t83 -56t56 -83t20.5 -101.5v-148v-52v-279h-52v279h-418zM260 943
q35 0 59.5 -24.5t24.5 -59.5t-24.5 -59.5t-59.5 -24.5t-59 24.5t-24 59.5t24 59.5t59 24.5zM260 909q-20 0 -35 -15t-15 -35t15 -35t35 -15q21 0 35.5 15t14.5 35t-14.5 35t-35.5 15z" />
    <glyph glyph-name="cedilla" unicode="&#xb8;" horiz-adv-x="223" 
d="M-13 -145l2 2q28 28 44 65.5t16 80.5v85h52v-85q0 -54 -20 -101t-55 -83l-2 -1z" />
    </font>
</defs>
</svg>
